<?xml version="1.0" encoding="UTF-8" standalone="no"?>
<svg
   xmlns:dc="http://purl.org/dc/elements/1.1/"
   xmlns:cc="http://creativecommons.org/ns#"
   xmlns:rdf="http://www.w3.org/1999/02/22-rdf-syntax-ns#"
   xmlns:svg="http://www.w3.org/2000/svg"
   xmlns="http://www.w3.org/2000/svg"
   xmlns:sodipodi="http://sodipodi.sourceforge.net/DTD/sodipodi-0.dtd"
   xmlns:inkscape="http://www.inkscape.org/namespaces/inkscape"
   width="518.18579mm"
   height="48.958786mm"
   viewBox="0 0 518.18579 48.958786"
   version="1.1"
   id="svg8"
   inkscape:version="1.0.1 (3bc2e813f5, 2020-09-07)"
   sodipodi:docname="logo_pausing.svg">
  <defs
     id="defs2" />
  <sodipodi:namedview
     id="base"
     pagecolor="#949494"
     bordercolor="#666666"
     borderopacity="1.0"
     inkscape:pageopacity="1"
     inkscape:pageshadow="2"
     inkscape:zoom="0.49497475"
     inkscape:cx="1040.8032"
     inkscape:cy="237.65128"
     inkscape:document-units="mm"
     inkscape:current-layer="g849"
     inkscape:document-rotation="0"
     showgrid="false"
     showborder="false"
     fit-margin-top="0"
     fit-margin-left="0"
     fit-margin-right="0"
     fit-margin-bottom="0"
     inkscape:window-width="1920"
     inkscape:window-height="1017"
     inkscape:window-x="1912"
     inkscape:window-y="-8"
     inkscape:window-maximized="1"
     inkscape:pagecheckerboard="false" />
  <metadata
     id="metadata5">
    <rdf:RDF>
      <cc:Work
         rdf:about="">
        <dc:format>image/svg+xml</dc:format>
        <dc:type
           rdf:resource="http://purl.org/dc/dcmitype/StillImage" />
        <dc:title></dc:title>
      </cc:Work>
    </rdf:RDF>
  </metadata>
  <g
     inkscape:label="Layer 1"
     inkscape:groupmode="layer"
     id="layer1"
     transform="translate(-186.67251,-38.797568)">
    <g
       id="g849"
       transform="translate(35.907738,65.011905)">
      <path
         id="path851"
         style="fill:#2f2f2f;fill-opacity:1;stroke-width:0.264583"
         d="m 165.90126,-15.690065 c -0.49416,0.0391 -2.28572,1.749525 -3.24529,3.134177 -0.79727,1.150469 -1.02642,1.225249 -1.24075,0.405659 -0.25712,-0.983239 -0.80253,-0.116448 -0.84904,1.349272 -0.0475,1.4977909 -0.32145,2.1418969 -0.67438,1.5849149 -0.1251,-0.19744 -0.24192,-0.6568086 -0.25941,-1.0206089 -0.0263,-0.546179 -0.0862,-0.486804 -0.34313,0.3410673 l -0.3111,1.0025216 -0.89297,-1.0025216 c -1.12094,-1.2590413 -1.37488,-0.7884273 -0.53846,0.9973536 0.36386,0.7768468 0.79797,1.3119218 1.1038,1.3601208 0.44739,0.07048 0.46284,0.136191 0.13385,0.582911 -0.47873,0.650018 -0.78415,0.439621 -1.90635,-1.314648 -1.62614,-2.5420697 -2.1106,-1.7509497 -1.59887,2.609659 0.17427,1.484929 0.50973,3.146055 0.74569,3.691763 0.55661,1.28704999 0.16938,1.29536299 -0.44389,0.0093 -0.79208,-1.661001 -1.98717,-2.985865 -2.6939,-2.985865 -0.35157,0 -0.63924,0.03375 -0.63924,0.07545 0,0.04166 0.27192,0.778685 0.60462,1.637626 0.37726,0.973971 0.86044,1.716936 1.28364,1.974556 0.37322,0.2272 0.99015,0.63289699 1.37098,0.90123696 1.00711,0.709641 2.01314,0.301625 2.68304,-1.08830496 0.56121,-1.16444 1.29893,-1.648479 2.51302,-1.648479 0.52394,0 0.97255,-0.255558 1.45366,-0.827339 0.38272,-0.45484 0.63393,-0.889 0.55811,-0.964798 -0.0758,-0.07582 -1.08707,0.414105 -2.24741,1.088306 -1.26709,0.736229 -2.27969,1.160565 -2.53525,1.062466 -0.36564,-0.140309 -0.3352,-0.260758 0.21859,-0.856279 0.39302,-0.42263 0.70079,-1.142204 0.78859,-1.843816 0.24895,-1.989489 1.68043,-3.0640288 4.80435,-3.6075278 l 1.86552,-0.324527 -1.78955,-0.2020566 c -0.98429,-0.110951 -1.84472,-0.290558 -1.91203,-0.399457 -0.0673,-0.1089113 0.13335,-0.4224903 0.44597,-0.6966013 0.31262,-0.274108 0.48101,-0.349329 0.37465,-0.167431 -0.25614,0.438042 -0.15623,0.421918 1.19838,-0.192751 1.56742,-0.71089 3.93785,-0.706842 5.41827,0.0098 2.12469,1.0285383 4.00206,3.7489267 4.55373,6.5990767 0.37682,1.94682 0.21904,12.137781 -0.21704,14.015682 -0.73457,3.1632523 -2.00404,5.2243463 -3.77393,6.1272763 -1.49364,0.761989 -3.99842,0.595273 -5.95209,-0.396359 -1.30427,-0.662009 -1.94407,-1.434023 -0.92604,-1.117243 0.25466,0.0793 0.62888,0.03966 0.83199,-0.08785 1.0389,-0.65224 -1.79254,-2.737996 -3.54397,-2.610697 -0.98377,0.0715 -1.05268,0.128263 -0.97359,0.804607 0.10265,0.877808 -0.11691,0.913516 -0.92759,0.151926 l -0.61237,-0.575157 v 1.642277 c 0,2.04333 0.51252,3.318156 1.54978,3.854545 0.96199,0.497459 1.57474,0.312775 1.78852,-0.538985 0.0873,-0.34776 0.20484,-0.632521 0.26149,-0.632521 0.0566,0 0.68508,0.418846 1.39681,0.930177 0.71173,0.511329 1.75423,1.097767 2.31614,1.303795 1.36223,0.499592 2.29248,0.497446 3.4773,-0.0072 0.82957,-0.353362 1.62647,-0.388184 5.08496,-0.223242 4.96351,0.23672 6.03961,0.187986 6.81303,-0.309542 0.86392,-0.55576 0.77052,-1.348515 -0.18346,-1.558046 -1.26569,-0.27799 -1.48253,-1.867866 -1.40353,-10.2856793 0.0556,-5.92369004 -0.003,-7.310736 -0.35346,-8.333856 -0.57963,-1.694521 -0.32665,-3.237506 1.09605,-6.6895138 0.6463,-1.5681489 1.17512,-3.1493969 1.17512,-3.5139979 0,-0.909828 -0.68325,-1.210466 -2.12028,-0.933275 -0.65281,0.125931 -3.39778,0.234296 -6.09989,0.240294 -5.03246,0.0118 -6.87005,0.285306 -8.44858,1.257806 -0.40612,0.2502 -0.18888,-0.09062 0.56276,-0.882634 1.24657,-1.3135 1.79431,-2.565022 1.26556,-2.891814 -0.0208,-0.01284 -0.0482,-0.01759 -0.0811,-0.01499 z m -14.38672,14.4492457 c -0.58412,0 -0.23195,0.60729799 0.72967,1.25883696 0.48488,0.328522 0.94314,0.535839 1.01854,0.460438 0.20879,-0.20879 -1.32712,-1.71927496 -1.74821,-1.71927496 z m 2.08101,0.26458299 c -0.1319,0 -0.17619,0.243996 -0.0982,0.542086 0.15939,0.60948097 0.88402,0.60082097 1.08676,-0.01292 0.11241,-0.34027 0.0682,-0.344969 -0.30903,-0.03359 -0.3786,0.31257097 -0.43977,0.30331297 -0.43977,-0.06615 0,-0.23609 -0.10788,-0.429432 -0.23977,-0.429432 z m 6.01462,0.366903 c -0.2716,0.01168 -0.6443,0.102981 -1.07436,0.28266997 -1.03286,0.431559 -1.52817,0.937927 -0.91673,0.937927 0.25116,0 0.3369,0.205118 0.25786,0.61856704 l -0.11834,0.618566 -0.75086,-0.750858 c -0.53539,-0.53539004 -1.01307,-0.75085804 -1.66605,-0.75085804 -0.86083,0 -0.96595,0.101158 -1.75286,1.68361704 -0.98917,1.989191 -1.14829,3.591529 -0.43512,4.379579 0.52619,0.58143 0.9462,0.509556 0.9462,-0.162263 0,-0.407972 0.71155,-1.112848 1.1405,-1.129647 0.11805,-0.0046 0.14082,0.556766 0.0506,1.247984 -0.15254,1.16922 -0.13504,1.220928 0.24856,0.743109 0.40253,-0.501372 0.41238,-0.498938 0.41238,0.0987 0,0.514112 0.0636,0.559311 0.39688,0.28267 0.33541,-0.27836 0.39687,-0.222803 0.39687,0.356569 0,0.478628 0.1116,0.642318 0.37001,0.543118 0.20341,-0.07805 0.44845,-0.01412 0.54466,0.141078 0.30591,0.494335 0.96762,0.305732 1.70843,-0.487309 0.71472,-0.765109 0.72111,-0.766535 1.06557,-0.214974 0.29364,0.470199 0.39207,0.497096 0.64492,0.174667 0.1641,-0.209272 0.47677,-0.41502 0.69453,-0.456822 0.55954,-0.10745 1.58646,-1.319276 1.58646,-1.872236 0,-1.14645 -1.49137,-1.946664 -2.23758,-1.200444 -0.41191,0.411901 -0.46722,0.40481 -0.82786,-0.110069 -0.61059,-0.871731 -1.17667,-1.371494 -1.55443,-1.371494 -0.6202,0 -1.46656,0.894768 -2.127,2.248958 l -0.64492,1.322917 -0.008,-0.896586 c -0.005,-0.540858 0.16708,-1.025358 0.43408,-1.220597 0.4009,-0.29315 0.3751,-0.368168 -0.27285,-0.792715 -0.82127,-0.538121 -0.77646,-0.56025 -1.33687,0.660939 l -0.4253,0.926042 0.1385,-0.926042 c 0.20344,-1.362278 0.80306,-1.705972 1.84846,-1.059883 0.89607,0.553802 1.45779,0.344384 1.45779,-0.543635 0,-0.335661 0.17199,-0.407889 0.72761,-0.305408 0.40018,0.07381 0.82259,0.295415 0.93896,0.492477 0.24763,0.419298 1.20457,0.465119 1.77302,0.08475 0.34352,-0.229852 0.32775,-0.318164 -0.11679,-0.657326 -0.28247,-0.215519 -0.68015,-0.392223 -0.88367,-0.392223 -0.36465,0 -1.35487,-1.00255204 -1.37201,-1.38906304 -0.005,-0.10914 0.15508,-0.198437 0.35554,-0.198437 0.20046,0 0.5117,-0.177224 0.69143,-0.393774 0.31593,-0.380675 0.14466,-0.58171297 -0.30799,-0.56223997 z m -8.76484,0.99115297 c -0.15562,0 -0.0862,0.164608 0.21187,0.494027 0.26339,0.29104204 0.78769,0.52431404 1.1653,0.51831604 0.65948,-0.01065 0.65018,-0.03137 -0.23926,-0.51831604 -0.6017,-0.329419 -0.9823,-0.494027 -1.13791,-0.494027 z m 7.62537,4.71030804 c 0.35298,-0.01792 0.65629,0.154646 0.65629,0.530717 0,0.282451 -0.11763,0.58651 -0.26148,0.67541 -0.14999,0.0927 -0.19474,-0.01362 -0.10439,-0.249079 0.1953,-0.50896 -0.6856,-0.567213 -1.20147,-0.07958 -0.28876,0.272939 -0.29617,0.226706 -0.0434,-0.264583 0.19867,-0.386175 0.60148,-0.594961 0.95446,-0.612883 z m 4.30155,2.475817 c -0.0507,0.0051 -0.13416,0.09456 -0.22686,0.253733 -0.578,0.99237 -1.70204,1.31917 -5.60845,1.631939 -2.19277,0.175573 -1.19053,0.5700723 1.13172,0.445453 l 0.92604,-0.04961 -0.6351,0.5053933 c -0.48009,0.38206 -0.54458,0.54076 -0.26459,0.651642 0.76727,0.303858 1.48443,0.168751 2.30012,-0.433049 0.96668,-0.7131993 2.43967,-2.4852013 2.42776,-2.9207533 -0.002,-0.06071 -0.0202,-0.08781 -0.0506,-0.08475 z m -9.19686,1.829345 c -0.19542,0.0071 -0.19099,0.120886 -0.0956,0.387575 0.27737,0.7755103 0.69684,1.2025833 1.54564,1.5725133 0.7738,0.33723 1.72031,0.47785 1.72031,0.255797 0,-0.06086 0.0719,-0.298985 0.1602,-0.529167 0.12057,-0.314209 -0.008,-0.418579 -0.51418,-0.418579 -0.37112,0 -0.82993,-0.222019 -1.0201,-0.493508 -0.19015,-0.2714913 -0.73281,-0.5782893 -1.20561,-0.6821303 -0.28421,-0.06242 -0.4734,-0.09676 -0.59066,-0.092501 z m 1.36323,3.0375433 c -0.0946,0.0018 -0.19819,0.01038 -0.30696,0.02635 -0.43507,0.06386 -0.71962,0.23105 -0.63252,0.372071 0.0872,0.141001 0.473,0.185502 0.85731,0.0987 0.66654,-0.150522 0.67493,-0.139055 0.185,0.243395 -0.49351,0.385241 -0.48523,0.40101 0.22015,0.40101 1.02078,0 0.78221,0.496618 -0.6997,1.455209 -0.6749,0.43656 -1.23379,0.882528 -1.24179,0.991669 -0.0302,0.41747 0.53338,0.166441 1.46865,-0.654741 0.93822,-0.823769 0.965,-0.830678 0.76946,-0.198437 -0.11143,0.360262 -0.36601,0.976466 -0.56586,1.369425 -0.19984,0.392962 -0.35865,0.988269 -0.35295,1.322916 0.009,0.50995 0.0737,0.462447 0.40153,-0.293004 0.21515,-0.49575 0.58191,-1.56731 0.81545,-2.38125 0.55799,-1.94472 0.66277,-2.087163 0.97307,-1.326534 0.22707,0.556601 0.27641,0.576749 0.37724,0.15348 0.1429,-0.599911 -0.69205,-1.413791 -1.32085,-1.287262 -0.25467,0.05124 -0.46303,-0.0137 -0.46303,-0.144693 0,-0.0983 -0.20054,-0.153685 -0.4842,-0.148312 z m -1.8402,0.623734 c -0.19238,0 -0.29323,0.08427 -0.18914,0.252699 0.0899,0.14552 0.42428,0.262966 0.74311,0.260966 0.47129,-0.0033 0.5056,-0.05245 0.18293,-0.260966 -0.26062,-0.168429 -0.54452,-0.252699 -0.7369,-0.252699 z" />
      <path
         id="path851-4"
         style="fill:#2f2f2f;fill-opacity:1;stroke-width:0.264583"
         d="m 625.54153,-13.82579 c -2.05666,-0.0022 -2.30515,1.690404 -0.70122,5.0296679 0.44418,0.9248689 0.95819,2.2768569 1.14255,3.0044689 0.18431,0.727599 0.34875,1.055023 0.36483,0.727604 0.0365,-0.74208 0.23014,-0.747086 0.99738,-0.02635 0.58483,0.549439 0.6124,0.551725 0.81078,0.06615 0.11293,-0.276461 0.20463,-1.536608 0.20463,-2.800349 -0.001,-3.3931088 0.35788,-2.1528449 0.42429,1.465547 0.0453,2.4726928 0.12917,3.077816 0.41185,2.9693263 0.19529,-0.074941 0.35502,-0.021061 0.35502,0.1198906 0,0.1409885 0.26786,0.2427261 0.59531,0.2258245 0.44797,-0.023098 0.48072,-0.060928 0.13229,-0.151929 -0.69368,-0.1812899 -0.56417,-0.5051478 0.45217,-1.1332634 1.98946,-1.229561 2.99464,-3.442651 1.74408,-3.83956 -0.60721,-0.1927199 -1.98842,0.459226 -2.37349,1.120346 -0.25014,0.429441 -0.27051,0.426147 -0.27752,-0.04754 -0.0109,-0.69148 2.131,-2.6393559 3.79563,-3.4519868 2.12762,-1.038619 3.53121,-1.125683 5.27669,-0.326594 2.44176,1.1178809 4.06453,3.8679258 4.83021,8.1850322 0.26101,1.4692576 0.33385,3.737721 0.26096,8.0697915 -0.0935,5.5565193 -0.15529,6.2083073 -0.79272,8.3658963 -0.38021,1.286939 -0.86712,2.680235 -1.0821,3.095935 -0.7113,1.37551 -0.71985,1.372663 3.96563,1.272272 3.4272,-0.07343 4.44119,-0.178188 4.75322,-0.490407 0.4704,-0.470702 0.33128,-0.719352 -0.93174,-1.667082 l -0.95085,-0.713661 -0.17415,-4.828646 c -0.2063,-5.7159386 0.19007,-13.745426 0.78033,-15.8093692 0.58047,-2.029831 1.90302,-4.4238739 2.79517,-5.0591248 0.41296,-0.294058 1.13736,-0.648883 1.60972,-0.788583 2.81197,-0.83166 6.58477,2.6762049 7.97729,7.4171209 0.49724,1.6927989 0.55587,5.31899 0.10698,6.6342207 -0.19934,0.5841894 -0.32073,2.8229452 -0.33073,6.0838658 -0.0173,5.8305186 -0.21773,6.6332516 -1.9508,7.8108906 l -0.9338,0.634072 0.76999,0.293004 c 0.42347,0.160999 1.42616,0.397293 2.2283,0.525032 2.08547,0.332139 5.74439,0.110341 6.51536,-0.394806 0.79259,-0.519362 0.81251,-1.253863 0.0429,-1.595253 -0.32385,-0.14365 -0.86762,-0.677751 -1.20819,-1.186492 -0.60243,-0.899768 -0.61542,-1.040455 -0.4749,-5.1593736 0.0795,-2.32891 0.27649,-5.008277 0.4377,-5.954157 1.0659,-6.2546811 -2.77228,-14.2376984 -8.08789,-16.8227464 -1.37655,-0.669411 -1.8864,-0.771429 -3.83646,-0.768429 -1.95852,0.0032 -2.43689,0.102343 -3.70417,0.764294 -0.80033,0.41806 -2.18844,1.517301 -3.08456,2.443263 -0.89615,0.9259589 -1.68661,1.6836179 -1.75699,1.6836179 -0.0704,0 -0.19651,-0.267883 -0.28009,-0.595313 -0.24125,-0.9447609 -1.70982,-2.5435429 -2.90732,-3.1651809 -1.67717,-0.87068 -5.12255,-0.950204 -9.2723,-0.213424 l -3.3016,0.586526 -2.12548,-0.820105 c -1.3557,-0.522819 -2.43739,-0.783056 -3.24218,-0.783931 z m -0.41029,10.3171996 c -0.31758,-0.00916 -0.67296,0.1230842 -1.16945,0.3798226 -0.92456,0.4780995 -2.07648,2.68659761 -2.08048,3.98838732 -10e-4,0.45681898 0.23159,1.11165738 0.51779,1.45520828 l 0.52039,0.6242501 0.009,-0.9741007 c 0.007,-0.7868497 0.17013,-1.08863338 0.84749,-1.57096349 l 0.8387,-0.5973789 -0.62167,0.8402584 c -0.70593,0.95477009 -0.587,1.30422649 0.28475,0.83767609 0.5293,-0.2832708 0.57116,-0.2642896 0.39687,0.1772497 -0.10721,0.2715895 -0.25961,0.8804647 -0.33898,1.3534047 -0.15356,0.9142598 -0.73387,1.1370786 -1.37821,0.5291667 -0.28284,-0.2668879 -0.32893,-0.2540741 -0.23824,0.066146 0.0618,0.2182442 0.63381,0.6633501 1.27125,0.9885705 h 5e-4 c 1.21095,0.6175957 1.83076,0.5632318 0.94671,-0.083198 -0.49038,-0.3585897 -0.49308,-0.4136468 -0.0656,-1.309997 0.24545,-0.514731 0.44709,-1.3189612 0.45011,-1.7869721 0.006,-1.30639069 0.269,-2.00822179 0.81907,-2.18281239 0.27548,-0.087429 0.62095,-0.38379671 0.7679,-0.65835741 0.21484,-0.4014312 0.11255,-0.6568413 -0.52089,-1.3048297 -0.50276,-0.5143103 -0.84846,-0.7597537 -1.25677,-0.7715303 z m 2.69079,0.3457152 c -0.0672,-0.00271 -0.13282,0.00701 -0.19534,0.031007 -0.69186,0.2654909 -0.54922,0.9141434 0.38499,1.7482131 l 0.8418,0.75137701 h -0.98909 c -0.97515,0 -1.00137,0.027427 -1.90892,2.01899829 -0.92493,2.0296295 -0.9939,2.5747981 -0.24701,1.9549191 0.35073,-0.2910814 0.38192,-0.2267215 0.23823,0.4919583 -0.1709,0.8543209 0.0896,1.0606668 0.64183,0.5084974 0.24688,-0.2469515 0.31728,-0.2175484 0.31728,0.1322915 0,0.2473801 0.14883,0.4571206 0.33073,0.4661218 1.04072,0.052768 -1.23957,0.5383397 -2.64014,0.5622395 -0.92221,0.015708 -1.72778,0.111723 -1.7906,0.2134235 -0.13451,0.2176489 1.14435,1.4585871 1.71876,1.6675971 1.42103,0.517081 2.22134,-0.174223 1.08469,-0.936892 l -0.68781,-0.4609544 1.45521,-0.013954 c 0.80036,-0.00752 1.81239,-0.177337 2.24896,-0.3772377 l 0.79375,-0.3632835 -0.77722,-0.021704 -0.77774,-0.021188 0.55552,-0.5177975 c 0.63947,-0.5958204 0.98668,-1.8642778 0.73072,-2.670638 -0.16764,-0.5280924 -0.19986,-0.5326538 -0.68109,-0.097152 -0.29448,0.2664989 -0.5054,0.3295412 -0.5054,0.1514105 0,-0.1680687 -0.18553,-0.3054059 -0.41238,-0.3054059 -0.54322,0 -0.21492,-0.5079577 0.50591,-0.78289948 0.96393,-0.36767031 1.49309,0.36765438 1.49809,2.08049298 0.003,1.0533697 0.0779,1.3660647 0.26046,1.0836565 0.14105,-0.2182812 0.25744,-1.0654532 0.26046,-1.8825739 0.003,-1.1044582 -0.13581,-1.66389059 -0.54158,-2.17971159 l -0.5457,-0.6934967 0.77205,0.1539954 c 0.94861,0.1897195 1.25812,-0.3654504 0.67075,-1.20406051 -0.32269,-0.4606607 -0.56211,-0.5399325 -1.20407,-0.398944 -0.4876,0.1071615 -0.73948,0.076531 -0.64389,-0.078031 0.23307,-0.3771503 -0.29223,-0.9912641 -0.76221,-1.0102748 z m 3.51605,2.79776221 c -0.23268,0.00714 -0.4658,0.1056376 -0.67488,0.3147113 -0.49784,0.49784 -0.37557,1.90191499 0.2217,2.54299519 0.96022,1.0307214 1.84174,0.5646314 1.84174,-0.9741007 0,-1.10396069 -0.69051,-1.90501319 -1.38856,-1.88360579 z m 0.71675,4.00957529 c -0.10519,-0.026466 -0.44809,0.1880817 -1.04902,0.7157191 -0.51959,0.4561997 -1.52672,1.1244208 -2.23861,1.4851802 -0.71194,0.3607699 -1.36983,0.7772456 -1.46143,0.9255256 -0.10175,0.16464 0.21667,0.2697512 0.81754,0.2697512 0.84992,0 1.20047,-0.2165462 2.57244,-1.5885349 1.05008,-1.0500942 1.53445,-1.7635298 1.35908,-1.8076412 z m -1.30325,3.7124351 c -0.04,-7.73e-4 -0.0766,0.0019 -0.10854,0.0083 -0.30263,0.06062 -0.1176,0.299579 0.62373,0.806669 1.11006,0.759249 1.84026,0.936525 1.66243,0.403075 -0.14152,-0.424641 -1.57728,-1.206411 -2.17762,-1.218012 z m -0.27803,0.503846 c -0.0991,-0.02829 -0.25977,0.07541 -0.50591,0.304374 -0.29591,0.275259 -0.26482,0.463849 0.18603,1.124479 0.29789,0.43656 0.79052,0.9996646 1.0945,1.2510846 0.73382,0.606951 0.77227,0.589738 0.56224,-0.247013 -0.0988,-0.3936806 -0.4091,-0.8766586 -0.68987,-1.0733186 -0.28078,-0.196659 -0.51057,-0.588991 -0.51057,-0.871781 0,-0.299236 -0.0373,-0.459539 -0.13642,-0.487825 z m -3.24683,0.238228 c -0.30221,0 -0.3591,0.236723 -0.25064,1.045414 0.0809,0.603268 0.0263,1.0833306 -0.1297,1.1353286 -0.14867,0.04956 -0.36097,0.561309 -0.47181,1.137399 l -0.20153,1.047484 -0.032,-1.322918 -0.0315,-1.3229156 -0.65783,0.7937496 c -1.07598,1.29861 -2.51458,4.359372 -2.51458,5.349544 0,1.26311 0.42339,1.036751 1.83711,-0.982369 0.64659,-0.923452 1.22489,-1.531326 1.28519,-1.350307 0.20188,0.605679 -0.76997,2.649247 -1.587,3.336748 -0.44439,0.37392 -0.7579,0.729867 -0.69659,0.791165 0.0613,0.06131 1.05859,0.226288 2.21588,0.366903 h 5.3e-4 c 2.6402,0.320696 5.59933,0.1401 6.41096,-0.391707 0.74083,-0.48541 0.67593,-1.267027 -0.11472,-1.380276 -1.13504,-0.162592 -1.51935,-0.983194 -1.67534,-3.575493 -0.13992,-2.32508 -0.52298,-3.6194166 -1.07075,-3.6194166 -0.14038,0 -0.26117,0.446487 -0.26715,0.9921876 l -0.0114,0.992187 -0.36018,-1.009758 c -0.42108,-1.1806496 -1.12414,-2.0329496 -1.6769,-2.0329496 z m -0.85008,0.288869 -1.38907,0.646991 c -0.76395,0.35569 -1.52119,0.648055 -1.68309,0.649055 -0.1619,0.0014 -0.74411,0.3597746 -1.29347,0.7963346 -0.54935,0.43656 -0.85664,0.79375 -0.68315,0.79375 0.17351,0 1.15485,-0.35719 2.18075,-0.79375 1.02589,-0.43656 2.09097,-0.7937496 2.36677,-0.7937496 0.35603,0 0.50126,-0.188116 0.50126,-0.649057 z" />
      <path
         id="path851-9"
         style="fill:#2f2f2f;fill-opacity:1;stroke-width:0.264583"
         d="m 201.2564,-13.703798 c -0.63419,-0.01818 -1.11677,0.112181 -1.40043,0.395841 -0.69894,0.698942 -0.51262,2.440164 0.48369,4.5191037 0.49472,1.032311 1.05904,2.576483 1.25419,3.43183 0.33023,1.447361 0.3645,1.495272 0.48989,0.689883 l 0.13436,-0.865582 0.71572,0.666626 0.71572,0.666625 0.16639,-0.887282 c 0.0916,-0.488022 0.12715,-1.792074 0.0786,-2.898016 -0.059,-1.341108 -2.4e-4,-1.921903 0.17622,-1.744595 0.14552,0.146222 0.26565,1.619992 0.26665,3.275252 0.001,1.65527 0.0609,3.068476 0.13281,3.140376 0.0719,0.07187 0.42818,0.182581 0.79168,0.245981 0.36349,0.0633 0.51211,0.06375 0.33021,0.0016 -0.57444,-0.196472 -0.36744,-0.49044 0.94361,-1.339969 1.51229,-0.979932 2.4474,-2.467324 1.99265,-3.169833 -0.47182,-0.728861 -1.94389,-0.522126 -2.65772,0.373102 -0.51709,0.648431 -0.57175,0.668322 -0.43873,0.159682 0.20793,-0.79516 2.15527,-2.541206 3.70778,-3.3243457 2.70098,-1.362458 4.89134,-1.152548 6.8554,0.6578417 1.39155,1.282691 2.29923,3.053766 3.02772,5.908165 0.49216,1.92849 0.53079,2.728243 0.43459,8.995833 -0.11208,7.3057113 -0.26226,8.3154303 -1.73064,11.6349513 -0.30764,0.695481 -0.55914,1.308925 -0.55914,1.363223 0,0.0543 1.69664,0.09795 3.77032,0.09715 5.62687,-0.0022 6.86809,-0.541054 4.72632,-2.051552 -1.30571,-0.920883 -1.35315,-1.237909 -1.35289,-9.0304583 2.6e-4,-6.97642303 0.33447,-11.110434 1.07642,-13.312883 1.53439,-4.5547487 4.33536,-6.1925767 7.45898,-4.3620077 3.49416,2.0477097 5.91044,8.0997467 4.95009,12.3987256 -0.24322,1.0886991 -0.38525,3.4479601 -0.40515,6.7380911 -0.0289,4.7862503 -0.0655,5.1329343 -0.66869,6.3494833 -0.35093,0.70776 -1.02764,1.544544 -1.50379,1.859835 l -0.86558,0.573609 0.97204,0.32091 c 0.53466,0.176462 1.57893,0.41692 2.32079,0.53485 v 5.19e-4 c 1.77911,0.282818 5.13465,0.12079 6.03064,-0.290939 0.89021,-0.409069 1.11399,-0.94457 0.57567,-1.378212 -2.1709,-1.748779 -2.30048,-2.292474 -1.92081,-8.0372363 0.16237,-2.456669 0.35068,-5.400556 0.41858,-6.5422351 0.4453,-7.4904489 -5.3527,-15.3941736 -11.54297,-15.7354726 -2.6808,-0.147799 -4.42004,0.619694 -6.88485,3.037025 -1.08906,1.0680797 -2.00784,1.9419987 -2.04173,1.9419987 -0.0339,0 -0.26603,-0.430848 -0.51573,-0.957048 -1.60292,-3.3779087 -4.96496,-4.2032867 -12.16464,-2.9868967 l -3.2799,0.554487 -1.9668,-0.81907 c -1.21628,-0.506334 -2.2821,-0.775542 -3.09749,-0.798918 z m -0.65474,10.2991117 c -0.77918,0 -2.04903,1.090324 -2.58486,2.219502 -0.54968,1.15839097 -0.5681,3.4205939 -0.0315,3.865914 0.34018,0.282311 0.39688,0.194178 0.39688,-0.6144311 0,-0.674981 0.16684,-1.060278 0.58756,-1.35495798 0.86693,-0.60722895 1.07117,-0.50276895 0.55552,0.284221 -0.45125,0.68869998 -0.44928,0.69409498 0.15503,0.50229598 0.59904,-0.19013 0.60752,-0.1669 0.44183,1.2216311 l -0.16898,1.41645 0.45217,-0.79375 c 0.24869,-0.43656 0.47416,-1.2700031 0.50126,-1.8520841 0.0833,-1.78800893 0.10433,-1.85134193 0.69505,-2.12028293 1.10037,-0.50096997 1.20764,-1.08796697 0.36122,-1.97145597 -0.42333,-0.441859 -1.03575,-0.803052 -1.36116,-0.803052 z m 2.91558,0.464055 c -0.17023,-6.59e-4 -0.35324,0.05802 -0.52658,0.187068 -0.48813,0.3634 -0.47218,0.410819 0.41858,1.247468 l 0.92604,0.86971497 -0.92604,0.136943 c -0.83219,0.123121 -1.01261,0.311245 -1.77974,1.85673493 -0.94232,1.8984191 -1.14852,2.9450181 -0.46922,2.3812501 0.33627,-0.279091 0.39688,-0.218663 0.39688,0.393258 0,0.516789 0.10707,0.680894 0.37723,0.577225 0.20764,-0.07968 0.51572,0.02168 0.68472,0.225309 0.24623,0.29669 0.18464,0.39538 -0.31109,0.49661 -0.69842,0.142631 -1.18584,0.175135 -2.8174,0.189137 -1.40354,0.0121 -1.43171,0.568605 -0.0754,1.482595 v -5.16e-4 c 0.93001,0.62674 2.40657,0.820759 2.40657,0.316259 0,-0.15857 -0.26789,-0.511815 -0.59531,-0.784965 l -0.59531,-0.49661 1.4552,-0.01809 c 0.80037,-0.01 1.75287,-0.188389 2.11667,-0.396359 l 0.66146,-0.37827 -0.71572,-0.0088 -0.71572,-0.0093 0.64957,-0.649057 c 0.49999,-0.49998 0.64958,-0.927693 0.64958,-1.858282 V 1.6099826 l -0.71779,0.46922 c -0.39456,0.2580221 -0.62525,0.3198761 -0.51315,0.137977 0.13083,-0.212291 0.0505,-0.330729 -0.22427,-0.330729 -0.50978,0 -0.30158,-0.420092 0.39274,-0.791683 0.82063,-0.43917998 1.32705,0.330052 1.32705,2.0169321 0,1.70325 0.41658,1.688954 0.67334,-0.02325 l 0.17519,-1.1673711 0.58342,0.6779951 c 0.78945,0.917789 1.66078,0.656719 1.89033,-0.5668911 0.20383,-1.08649098 -0.21854,-1.93908693 -1.06609,-2.15180593 -0.83948,-0.210691 -1.13852,0.0037 -1.43454,1.02732695 -0.19117,0.66094998 -0.25011,0.71576598 -0.26871,0.25114698 -0.0131,-0.32742898 -0.24867,-0.81968898 -0.52297,-1.09399093 -0.48857,-0.488619 -0.48175,-0.49802 0.32143,-0.463021 0.59429,0.02588 0.84656,-0.09493 0.91726,-0.439766 0.15671,-0.76397897 -0.47526,-1.31003397 -1.32034,-1.14101597 -0.52076,0.104151 -0.74207,0.04121 -0.74207,-0.209807 0,-0.461647 -0.31123,-0.750445 -0.68575,-0.75189 z m 4.05557,6.840408 c -0.09,-0.01634 -0.34213,0.138062 -0.75964,0.489376 -0.456,0.383691 -1.3192,0.94648 -1.91823,1.250569 -0.59903,0.304091 -1.37326,0.774893 -1.72031,1.045932 l -0.63097,0.492477 h 0.84284 c 1.16436,0 2.18238,-0.583023 3.30316,-1.892393 0.73322,-0.856599 1.03319,-1.35872 0.88315,-1.385961 z m -9.03872,0.0062 c -0.0953,0.0024 -0.15193,0.02827 -0.15193,0.0832 0,0.12274 0.49949,0.470492 1.11001,0.772565 1.15985,0.573817 1.64291,0.540239 0.99063,-0.06873 -0.39762,-0.371224 -1.53579,-0.797465 -1.94871,-0.787032 z m 7.8543,3.537767 c -0.20402,-0.0036 -0.33332,0.07413 -0.33332,0.245981 0,0.13572 -0.2372,0.321929 -0.5271,0.413927 -0.48916,0.155252 -0.49956,0.221512 -0.14004,0.916742 0.21306,0.412009 0.7179,0.9898693 1.1219,1.2841573 0.96708,0.704472 1.0648,0.53947 0.30902,-0.5219303 -0.56353,-0.791331 -0.92688,-1.810226 -0.64544,-1.810226 0.0635,0 0.54429,0.252643 1.06815,0.561724 1.20679,0.71203 1.58519,0.391231 0.53331,-0.452171 -0.49927,-0.400312 -1.04646,-0.632245 -1.38648,-0.638204 z m -3.47008,0.851628 c -0.3305,0.06593 -0.4142,0.323956 -0.3483,1.072287 0.0513,0.581999 -0.03,0.9859863 -0.19843,0.9859863 -0.1569,0 -0.28739,0.267893 -0.28939,0.595312 -0.002,0.32742 -0.12615,0.77391 -0.27544,0.992189 -0.26096,0.381529 -0.16682,-1.230023 0.1664,-2.8442723 0.1178,-0.570658 -0.2395,-0.831072 -0.51935,-0.378272 -0.0739,0.119621 -0.96025,0.541491 -1.96939,0.937411 -1.00914,0.3959303 -2.04546,0.9528303 -2.30321,1.2376523 -0.61468,0.679221 -0.49722,0.661732 1.88929,-0.286287 1.11385,-0.442471 2.1328,-0.7689223 2.26446,-0.7250223 0.13166,0.04389 -0.0719,0.4953213 -0.45217,1.0030413 -1.56376,2.087939 -3.08721,6.082832 -2.31976,6.082832 0.32981,0 1.4282,-1.200491 2.29547,-2.50889 l 0.69867,-1.053682 v 0.765844 c 0,0.990619 -1.16542,2.975081 -1.87999,3.201871 -0.9059,0.28752 -0.23247,0.603912 1.87999,0.88315 2.28361,0.301872 5.22942,0.172212 6.20737,-0.273367 0.96264,-0.43861 0.85463,-1.196557 -0.23564,-1.652095 -1.09364,-0.45696 -1.47027,-1.520587 -1.47227,-4.162536 -0.001,-1.357113 -0.11992,-1.898691 -0.52193,-2.3812513 l -0.52038,-0.624253 -0.009,1.1663363 -0.009,1.166856 -0.82166,-1.6438283 c -0.57716,-1.155031 -0.95088,-1.618012 -1.25677,-1.557012 z" />
      <path
         id="path851-9-9"
         style="fill:#2f2f2f;fill-opacity:1;stroke-width:0.264583"
         d="m 314.08426,-21.899233 c -2.67353,-0.02306 -4.23906,0.959231 -3.85765,2.478918 0.20581,0.82002 1.55076,2.374024 2.90319,3.354832 1.00786,0.730932 1.03865,0.735745 1.81436,0.285255 0.43408,-0.25209 1.31833,-1.043408 1.96473,-1.758548 0.98773,-1.092771 1.16234,-1.447395 1.09554,-2.222603 -0.11814,-1.370322 -1.10624,-1.99181 -3.37085,-2.119767 -0.18784,-0.01062 -0.37109,-0.01655 -0.54932,-0.01809 z m -0.86145,7.987109 c -3.19442,0.07412 -5.15227,1.154306 -3.02513,2.163691 1.18721,0.56337 1.68575,1.524831 1.91616,3.6953817 0.10716,1.00951 0.2769,2.140591 0.37724,2.513542 l 0.18241,0.678511 0.33177,-0.617532 c 0.31615,-0.588391 0.34798,-0.594564 0.68833,-0.132292 0.29913,0.40631 0.37817,0.420936 0.4873,0.08837 0.3823,-1.16514 0.39512,-1.185537 0.41652,-0.661458 0.0119,0.291039 0.37,0.762201 0.79581,1.047482 0.42581,0.285279 0.71644,0.612704 0.64544,0.727605 -0.19833,0.320907 0.71193,0.241625 1.87689,-0.163817 1.7619,-0.613188 1.54758,-1.061892 -0.40979,-0.857311 l -1.68156,0.175699 1.31517,-1.370457 1.31465,-1.370978 -1.10019,0.842327 -1.10019,0.842844 0.52451,-1.379762 c 0.33357,-0.87774 0.46692,-1.683168 0.36742,-2.2138186 -0.13844,-0.7379601 -0.0182,-0.9612311 1.04025,-1.9368321 l 1.19631,-1.102775 -0.72864,-0.278535 c -0.40064,-0.15335 -1.77607,-0.408819 -3.05666,-0.567407 -0.8339,-0.10327 -1.63684,-0.139578 -2.37402,-0.122474 z m -3.79511,3.266983 c -0.25351,-0.01166 -0.36519,0.224393 -0.36019,0.7064191 0.008,0.7773076 0.95103,2.8178726 1.64383,3.5558536 0.30738,0.327419 0.65758,0.595312 0.77773,0.595312 0.12016,0 0.21807,-0.700304 0.21807,-1.556493 0,-1.483021 -0.0502,-1.602227 -1.06866,-2.5223276 -0.56194,-0.5076591 -0.95727,-0.7670961 -1.21078,-0.7787641 z m 7.47654,0.7529271 c 0.0761,0.0386 0.026,0.4367446 -0.1943,1.1720196 -0.17915,0.597981 -0.50717,1.23473 -0.72915,1.414901 -0.44685,0.362699 -0.46453,0.439351 0.3607,-1.60197 0.28415,-0.702884 0.48664,-1.0235536 0.56275,-0.9849506 z m -10.36577,2.3259536 c -0.40151,-0.03639 -0.7638,0.117187 -1.00924,0.506947 -0.36366,0.577491 0.26554,1.304851 1.77508,2.052072 1.44807,0.716798 1.84122,0.704405 1.61541,-0.05219 -0.42596,-1.427229 -1.49793,-2.426772 -2.38125,-2.506825 z m 4.7103,2.307871 c -2.04625,0 -3.6017,4.62440297 -2.16834,6.4466331 h 5.2e-4 c 0.3016,0.383421 0.60497,0.697117 0.67437,0.697117 0.0694,0 0.0478,-0.692542 -0.048,-1.53944098 -0.14287,-1.26281912 -0.0917,-1.62238612 0.28318,-1.99729512 0.67096,-0.670959 0.78264,-0.334603 0.29456,0.88521697 -0.61849,1.54575115 -0.56057,1.56709215 0.75344,0.277503 0.8378,-0.82224097 1.10705,-1.25331597 0.92191,-1.47639697 -0.18955,-0.228399 -0.0421,-0.358687 0.5364,-0.47439 0.60008,-0.120009 0.79788,-0.30549 0.79788,-0.747238 0,-0.786972 -1.26866,-2.071709 -2.04587,-2.071709 z m 2.98277,0.541052 c -0.34226,-0.01117 -0.65671,0.09573 -0.74569,0.327628 -0.15779,0.41117 0.75984,1.610526 1.08055,1.412317 0.12533,-0.07746 0.22789,0.03255 0.22789,0.24443 0,0.211881 -0.21241,0.384989 -0.4718,0.384989 -0.56366,0 -1.59142,1.286317 -2.33164,2.91816712 -0.5739,1.26519198 -0.76081,2.39088888 -0.2403,1.44745798 0.50242,-0.910651 1.57523,-1.93274113 2.37608,-2.26446213 0.6615,-0.273979 0.84645,-0.249174 1.31879,0.178284 0.44855,0.40598215 0.52165,0.70018215 0.39791,1.60300413 -0.10223,0.745818 -0.0468,1.1483159 0.17104,1.2366149 0.57063,0.231222 0.65994,0.184007 0.81494,-0.433565 0.11192,-0.4459499 0.33805,-0.6033109 0.85473,-0.5953119 0.45972,0.0073 0.88591,-0.232135 1.233,-0.692465 l 0.53072,-0.70331498 -0.77153,-1.14876815 c -0.98043,-1.45982797 -1.75261,-1.54848497 -1.942,-0.22272397 l -0.1323,0.92604197 -0.58601,-0.99218797 -0.58652,-0.992187 h 0.62166 c 0.36994,0 0.67006,-0.187492 0.74156,-0.463021 0.26725,-1.030441 -0.59356,-1.538772 -1.3441,-0.79375 -0.26715,0.265189 -0.29793,0.238567 -0.15555,-0.135393 0.0977,-0.256521 0.0308,-0.643466 -0.14883,-0.859895 -0.20029,-0.241322 -0.57034,-0.370721 -0.9126,-0.381889 z m -2.543,3.824573 -0.37104,0.66145797 c -0.20419,0.3638 -0.44862,1.10794515 -0.54312,1.65364613 -0.18137,1.0475489 -0.37231,1.1617909 -1.20096,0.718301 -0.34323,-0.183618 -0.51211,-0.184941 -0.51211,-0.0046 0,0.147871 0.56555,0.5570059 1.25677,0.9095059 1.31602,0.671189 1.94463,0.654547 0.93431,-0.02481 l -0.58704,-0.394806 0.5209,-1.0211279 c 0.2865,-0.56156 0.51608,-1.35308413 0.51108,-1.75906613 z m 2.39417,0.94567897 c -0.20412,0.02275 -0.52972,0.245962 -0.91622,0.66300915 -0.62936,0.67909798 -1.12132,2.12447688 -0.82424,2.42155588 0.0857,0.08572 0.4032,-0.06816 0.7059,-0.342098 0.3027,-0.27391 0.52771,-0.382262 0.49971,-0.240813 -0.0276,0.14143 -0.0368,0.405662 -0.0196,0.587563 0.0483,0.509539 0.74715,0.392403 1.31878,-0.221176 0.55346,-0.594069 0.96428,-2.19003288 0.68161,-2.64738403 -0.10891,-0.176228 -0.40144,-0.06494 -0.78961,0.29972315 l -0.6165,0.57929398 0.14624,-0.55965698 c 0.10073,-0.38518015 0.0181,-0.56277415 -0.18603,-0.54001715 z m 4.73408,1.78903813 c -0.15731,0.02003 -0.83701,0.459407 -1.64538,1.0712509 -0.92385,0.699262 -2.17104,1.497906 -2.77141,1.775086 -0.60036,0.27717 -1.09412,0.608836 -1.09812,0.736905 -0.004,0.1281 0.5583,0.170013 1.24953,0.09302 1.13158,-0.125992 1.40832,-0.304073 2.77813,-1.790073 0.83675,-0.90772 1.52135,-1.7488009 1.52135,-1.8686199 0,-0.01498 -0.0116,-0.02043 -0.0341,-0.017569 z m -3.1812,1.6727649 c -0.0501,0.0094 -0.16823,0.05707 -0.35657,0.135392 -0.29104,0.121039 -1.80897,0.219626 -3.37344,0.219626 -1.8535,0 -2.84441,0.09928 -2.84427,0.284736 2.5e-4,0.32344 0.93047,1.219153 1.71979,1.65571 0.59059,0.326655 1.45521,0.40468 1.45521,0.13126 0,-0.09768 -0.17737,-0.373708 -0.39429,-0.613397 -0.36039,-0.398222 -0.24764,-0.465024 1.30741,-0.774113 0.93599,-0.186041 1.91704,-0.515151 2.18023,-0.731223 0.28389,-0.233037 0.38938,-0.323633 0.30593,-0.307991 z m 0.84904,1.844331 c -0.45565,0.0035 -0.80874,0.32154 -0.80874,0.998397 0,0.697468 -0.08,0.775414 -0.72708,0.706411 -1.10468,-0.117792 -2.13311,0.34499 -2.81379,1.266587 -1.10985,1.502701 -1.00573,1.9325703 0.1633,0.673867 1.8092,-1.947994 2.24737,-2.147914 1.28726,-0.58756 -0.46148,0.749988 -1.18964,2.4002473 -1.61799,3.6674693 -0.87162,2.578603 -1.84914,4.403619 -2.66547,4.97541 -0.5277,0.369623 -0.51381,0.392404 0.4408,0.707443 0.54252,0.179044 1.59341,0.42209 2.33526,0.540015 1.842,0.29284 5.23515,0.114247 6.14846,-0.32348 0.33851,-0.162242 0.59208,-0.393621 0.73949,-0.612881 v -0.604626 c -0.0847,-0.03186 -0.2076,-0.03228 -0.37258,0.01085 -0.83355,0.21799 -1.52291,-0.607007 -1.74512,-2.088753 l -0.18862,-1.258834 -0.49196,0.607721 c -0.61128,0.754883 -0.61005,0.728663 0.0377,-0.975651 0.58137,-1.529608 0.71041,-4.2568553 0.24288,-5.1304563 -0.41809,-0.781209 -0.0986,-0.908711 0.9834,-0.392721 0.52552,0.250587 1.00743,0.403834 1.07073,0.340545 0.0633,-0.06329 -0.0645,-0.544459 -0.2837,-1.069181 -0.3928,-0.940144 -1.14842,-1.455113 -1.73426,-1.45057 z m -3.20187,0.495054 c -0.42472,0 -1.57562,1.24751 -1.57562,1.707912 0,0.63201 0.41612,0.487653 1.16737,-0.40513 0.72549,-0.862225 0.86344,-1.302782 0.40825,-1.302782 z m 1.16737,3.42048 c 0.0599,-0.04329 0.0758,0.7270223 0.062,2.4665003 -0.0147,1.855125 -0.0438,3.373172 -0.0646,3.373436 -0.37925,0.005 -0.43814,-2.87565 -0.108,-5.2911373 0.0466,-0.341127 0.0834,-0.52914 0.11059,-0.548799 z" />
      <path
         id="path851-9-2"
         style="fill:#2f2f2f;fill-opacity:1;stroke-width:0.264583"
         d="m 383.85851,-13.825706 c -0.99085,-0.01502 -1.76975,0.08148 -1.98386,0.295589 -0.47016,0.47017 -0.39238,1.08635 0.34985,2.76469 0.42677,0.9649492 0.56893,1.5707072 0.39377,1.6789662 -0.37092,0.229241 -1.31203,3.68309 -1.048,3.846285 0.11548,0.07136 0.46859,0.906542 0.78445,1.855682 0.31586,0.949166 0.87129,2.078751 1.23455,2.51044599 0.36325,0.43172 0.5964,0.784965 0.5178,0.784965 -0.0786,0 -0.95262,-0.420872 -1.942,-0.93532799 -0.98939,-0.514482 -2.2751,-1.01047 -2.85719,-1.102254 -0.97918,-0.154438 -1.03032,-0.133139 -0.68265,0.288845 0.68703,0.833861 2.72648,1.85666099 3.57343,1.79215599 0.63134,-0.0481 0.97942,0.131603 1.56425,0.80719 0.42629,0.49244301 0.68549,0.66077101 0.59789,0.38859401 -0.12228,-0.37967701 -0.049,-0.44664301 0.35037,-0.31988101 0.27788,0.08819 0.58181,0.03672 0.67541,-0.114724 0.26811,-0.43381 0.61737,-0.323162 0.80047,0.253736 0.10427,0.32853301 0.40035,0.52916601 0.78083,0.52916601 0.80596,0 2.52646,-1.89267001 2.52646,-2.779156 0,-0.722604 -0.34715,-0.817378 -1.45314,-0.396875 -0.3816,0.144991 -0.65417,0.174863 -0.60617,0.06615 0.048,-0.108691 0.40306,-0.85225 0.7891,-1.652614 0.38604,-0.800365 1.03348,-2.286424 1.43867,-3.302119 0.77625,-1.945839 2.07673,-3.6208132 3.30419,-4.2555532 0.40389,-0.20886 1.37054,-0.379823 2.1482,-0.379823 5.05265,0 9.30884,7.6381192 7.73544,13.8823652 -0.38819,1.540562 -0.43505,2.475944 -0.28525,5.692669 0.23191,4.9804898 -0.0191,6.2418638 -1.56011,7.8501608 l -1.13482,1.184433 0.69556,0.264584 c 0.38267,0.145494 1.35226,0.368697 2.15439,0.496093 1.93559,0.307367 5.32212,0.141076 6.25801,-0.307472 1.12218,-0.537845 1.11569,-1.214173 -0.0165,-1.687248 -0.52051,-0.217487 -0.9467,-0.436933 -0.9467,-0.487812 0,-0.05096 -0.12843,-0.733901 -0.28578,-1.517756 -0.16121,-0.803354 -0.27776,-4.1957358 -0.26715,-7.7752308 0.0357,-12.030472 -0.37679,-14.362062 -2.94815,-16.6739122 -2.15889,-1.941038 -5.81551,-2.727073 -12.90309,-2.773473 -1.52796,-0.01001 -3.55202,-0.188299 -4.49791,-0.396359 -1.06124,-0.233445 -2.26373,-0.360156 -3.25458,-0.375171 z m -7.97161,1.036629 c -0.56468,0 0.61686,1.847522 3.13056,4.8947922 l 0.65474,0.79375 -1.58853,-0.09043 c -1.77352,-0.101068 -3.08064,0.129659 -2.71663,0.479557 0.13019,0.125143 0.53433,0.279315 0.89813,0.342617 0.62405,0.108598 4.23082,0.119129 4.23282,0.0124 4.7e-4,-0.02735 -0.18644,-0.860793 -0.41496,-1.852083 -0.30257,-1.312551 -0.60816,-1.9660322 -1.12448,-2.4034702 -0.95651,-0.810381 -2.88494,-2.177129 -3.07165,-2.177129 z m 7.18044,4.1501352 c 0.0599,-0.0092 0.13366,0.06669 0.23151,0.200504 0.23669,0.323699 0.30189,0.869318 0.19637,1.639176 -0.18281,1.333714 0.16427,1.508048 1.15342,0.578779 0.81125,-0.762133 0.78073,-0.284795 -0.0543,0.846984 -1.46474,1.985327 -2.14402,1.366864 -1.83865,-1.67381 0.11433,-1.138375 0.17987,-1.571387 0.31161,-1.591633 z m 3.81217,1.722374 c 0.0442,-0.0135 0.0991,0.0339 0.16743,0.127125 0.1819,0.248171 0.33073,1.010337 0.33073,1.693439 0,0.683074 -0.15456,1.610121 -0.34365,2.059807 -0.31442,0.747792 -0.34262,0.602906 -0.33073,-1.693412 0.008,-1.556261 0.0436,-2.146462 0.17622,-2.186959 z m 6.75256,6.56290199 c -0.18293,0 -0.52993,0.625078 -0.77152,1.38906301 -0.43865,1.386998 -0.43847,1.388057 0.0739,0.727604 0.73763,-0.95086001 1.12167,-2.11666701 0.69762,-2.11666701 z M 383.0968,1.2581232 c -0.75683,-0.01408 -1.55581,0.570494 -2.23449,1.728576 -0.90034,1.536329 -1.0394,3.702552 -0.29094,4.530486 0.2582,0.285565 0.40283,0.692706 0.32143,0.904849 -0.18852,0.491252 0.56701,1.153134 1.5906,1.393719 0.64025,0.150469 0.72979,0.121841 0.46302,-0.149357 -0.47123,-0.479055 -0.42895,-0.587984 0.49868,-1.27381 l 0.82992,-0.61341 -0.19224,1.023197 c -0.18684,0.995891 -0.17837,1.010973 0.31575,0.563774 0.52037,-0.470906 0.99714,-0.626163 0.76378,-0.24855 -0.0718,0.116099 -0.0346,0.367057 0.0832,0.557583 0.33215,0.5374478 1.23325,0.106495 1.67225,-0.799941 l 0.39119,-0.808223 0.17209,0.684715 c 0.25301,1.008142 0.61882,0.833226 0.8263,-0.394811 0.1747,-1.034044 0.19833,-1.056111 0.56741,-0.529167 0.21182,0.302419 0.56876,0.549831 0.79323,0.549831 0.62325,0 -2.29468,2.3293648 -3.34811,2.6727148 -1.83568,0.598276 -1.57472,0.905007 0.66146,0.777716 l 0.79375,-0.04545 -0.85577,0.612881 c -0.47043,0.336841 -0.85689,0.76118 -0.85989,0.943081 -0.003,0.181901 -0.12319,0.330729 -0.26872,0.330729 -0.14551,0 -0.26837,0.26789 -0.27337,0.595312 l -0.009,0.595313 -0.50695,-0.608224 -0.50694,-0.608224 -0.44132,0.854207 c -0.55998,1.082886 -0.65328,3.946207 -0.14831,4.554749 0.19972,0.240691 0.523,0.4377 0.71779,0.4377 0.55014,0 1.43298,-1.090559 1.43298,-1.769904 0,-0.81153 0.36751,-0.7729 1.00769,0.10594 0.45953,0.630819 0.57617,0.673126 0.96635,0.349329 0.24413,-0.202592 0.38656,-0.588381 0.31626,-0.857329 -0.11715,-0.447966 -0.0482,-0.439368 0.82321,0.09922 0.89359,0.552239 0.93807,0.556498 0.73535,0.0734 -0.11868,-0.28284 -0.3011,-1.02616 -0.40514,-1.652112 -0.13927,-0.837803 -0.42642,-1.337601 -1.08882,-1.89394 l -0.89969,-0.755491 0.72761,-0.185526 c 0.8726,-0.222409 0.9156,-0.467836 0.16949,-0.963242 -0.55584,-0.369067 -0.5549,-0.373777 0.28733,-1.275371 0.46492,-0.497708 1.21285,-1.6586998 1.66191,-2.5796878 0.80021,-1.64121 0.80772,-1.692566 0.37828,-2.593128 -0.36139,-0.757846 -0.5823,-0.918819 -1.26091,-0.918819 -0.60029,0 -0.86023,0.143113 -0.96119,0.529167 -0.18467,0.706173 -0.45765,0.667279 -0.81442,-0.115755 -0.25999,-0.570627 -0.22725,-0.654288 0.28784,-0.727604 0.80327,-0.114274 0.92625,-1.141651 0.18397,-1.538923 -0.44701,-0.239236 -0.70024,-0.211349 -1.22783,0.134356 -0.36968,0.242226 -0.60265,0.595497 -0.52555,0.796343 0.0922,0.240241 -0.10011,0.388593 -0.57464,0.443388 -0.57979,0.06691 -0.90074,0.428361 -1.71721,1.934237 -0.5523,1.018646 -0.91578,1.554427 -0.80719,1.190625 0.10858,-0.363802 0.21852,-0.98888 0.24392,-1.389063 0.0253,-0.400182 0.0609,-0.891302 0.0791,-1.091406 0.0182,-0.200078 0.39026,-0.435134 0.82682,-0.522446 0.95029,-0.190051 1.01188,-0.68244 0.24237,-1.927516 -0.46172,-0.747104 -1.0247,-1.119743 -1.61334,-1.130697 z m 5.52214,0.137451 c -0.29475,0.0059 -0.19174,0.429789 0.29404,1.423194 0.32334,0.66122 0.67714,0.967025 1.24437,1.076404 1.06103,0.204602 1.38938,-0.09694 1.23455,-1.134798 l -0.1292,-0.865082 -0.24442,0.727605 c -0.31655,0.940805 -0.70175,0.923713 -1.06815,-0.04702 -0.16076,-0.425927 -0.56739,-0.899584 -0.90331,-1.052645 -0.18728,-0.08533 -0.32963,-0.12962 -0.42788,-0.127662 z m -2.58279,0.391715 c -0.0814,-5.82e-4 -0.16871,0.0056 -0.26096,0.01913 -0.76446,0.111866 -0.92356,0.567823 -0.38603,1.10535 0.47098,0.470985 1.07481,0.339064 1.31517,-0.287311 0.19013,-0.495459 -0.0985,-0.832987 -0.66818,-0.837169 z m -3.48764,2.092378 c 0.38729,0 0.38486,0.03466 -0.0243,0.333825 -0.25124,0.183727 -0.62342,0.868336 -0.82682,1.521354 l -0.36949,1.18753 -0.0176,-0.933265 c -0.0201,-1.060238 0.59556,-2.109444 1.23817,-2.109444 z m 10.76059,0.444421 c -0.50406,0.0027 -2.02407,0.992796 -1.80198,1.214914 0.0857,0.0857 0.29277,0.11467 0.46046,0.06408 0.16767,-0.05059 0.6323,-0.163962 1.03248,-0.251672 0.74629,-0.163512 0.98904,-0.786051 0.39534,-1.013883 -0.0238,-0.0091 -0.0527,-0.01363 -0.0863,-0.013439 z m -6.43114,1.49397 c 0.28647,-0.0078 0.50329,0.113771 0.48524,0.368459 -0.008,0.113691 -0.36467,0.483023 -0.79271,0.821134 -0.54101,0.427302 -0.72961,0.487786 -0.61857,0.198437 0.0959,-0.250004 0.019,-0.416004 -0.19224,-0.416004 -0.22576,0 -0.14882,-0.202565 0.21446,-0.565864 0.26128,-0.261276 0.61735,-0.398383 0.90382,-0.406162 z m -4.92786,1.024731 c 0.17677,-0.01606 0.34605,0.383355 0.33486,1.123447 -0.0101,0.662623 -0.0291,1.200812 -0.0424,1.195811 -0.48186,-0.186399 -1.25829,-0.768165 -1.03405,-0.77515 0.17223,-0.0052 0.35078,-0.327792 0.39688,-0.716756 0.0652,-0.550995 0.20719,-0.814837 0.34468,-0.827352 z m 4.79919,3.1791538 c -0.0712,0.0064 -0.14966,0.02069 -0.23151,0.04289 -2.08661,0.565732 -3.92317,0.728239 -4.8333,0.427884 -0.52632,-0.173699 -1.03044,-0.242358 -1.12034,-0.152453 -0.0899,0.08993 0.29928,0.637567 0.86506,1.216978 0.70431,0.72128 1.25739,1.053677 1.75338,1.053677 0.87903,0 1.15442,-0.353325 0.62063,-0.796317 -0.61859,-0.513397 -0.46583,-0.791183 0.43512,-0.791183 1.07826,0 2.87476,-0.541629 2.87476,-0.866617 0,-0.104616 -0.15033,-0.154119 -0.3638,-0.134859 z m -3.01326,3.675724 c -0.11726,-0.01217 -0.33024,0.02085 -0.54621,0.0894 -0.73644,0.233733 -1.3684,1.71868 -1.3684,3.215825 0,0.797348 0.0933,1.17639 0.25012,1.01854 0.32508,-0.327157 1.8832,-4.159303 1.74666,-4.295854 -0.0144,-0.01437 -0.0431,-0.02384 -0.0822,-0.02791 z m 6.72311,2.961084 c -0.0539,-2.64e-4 -0.10368,0.01119 -0.14573,0.0372 -0.44925,0.277654 -0.34578,0.57142 0.3054,0.866616 0.37735,0.171 0.63106,0.175842 0.69247,0.01394 0.12552,-0.330994 -0.47474,-0.915961 -0.85214,-0.917761 z" />
      <path
         id="path851-9-9-3"
         style="fill:#2f2f2f;fill-opacity:1;stroke-width:0.264583"
         d="m 263.05506,-26.214269 c -2.19119,-0.0095 -2.58362,0.971393 -1.06247,2.655133 0.86873,0.96158 1.46823,2.414177 1.47123,3.565157 8.1e-4,0.295712 0.16378,1.163466 0.36225,1.928567 0.3528,1.360037 0.34838,1.389647 -0.19844,1.314648 -0.51281,-0.07031 -0.56635,0.06589 -0.64285,1.642793 -0.0459,0.94589 0.0317,2.136502 0.17208,2.645833 0.14033,0.50932 0.36822,1.426816 0.50643,2.038636 0.22624,1.0014792 0.20666,1.0886752 -0.19379,0.8743652 -0.24463,-0.130931 -0.59712,-0.422002 -0.78341,-0.6464722 -0.46808,-0.564002 -2.12705,-1.564725 -2.3027,-1.389062 -0.25184,0.251827 1.42363,2.4497242 2.83497,3.7186336 h 5.1e-4 c 1.34869,1.2126103 1.97531,1.4112673 3.02514,0.9601483 l 0.52917,-0.227373 -0.52917,-0.02274 c -0.29105,-0.01246 -0.70775,-0.13606 -0.92604,-0.274918 -0.32815,-0.208741 -0.3394,-0.3453983 -0.0641,-0.7896183 0.24927,-0.4022194 0.25446,-0.5374344 0.0202,-0.5374344 -0.17211,0 -0.0241,-0.316733 0.32866,-0.703835 0.48571,-0.532468 0.5289,-0.6634032 0.17829,-0.537434 -0.60562,0.217572 -0.58433,-0.1294052 0.0889,-1.4490072 0.79173,-1.551919 2.34686,-3.486631 3.38222,-4.208013 0.49026,-0.341579 0.75604,-0.666302 0.59067,-0.721402 -0.16537,-0.05513 -0.5285,0.178432 -0.80667,0.518832 -0.64453,0.788731 -1.01777,0.466984 -1.48828,-1.283126 l -0.3421,-1.273307 -0.0181,1.918229 c -0.01,1.055029 -0.10688,1.917679 -0.21601,1.916679 -0.25853,-0.0025 -0.26014,-5.708521 -0.002,-5.969662 0.10825,-0.109529 0.4428,0.02387 0.74362,0.296106 0.46796,0.4235 0.58208,0.439081 0.79117,0.108522 0.36733,-0.580742 0.30172,-2.303108 -0.11886,-3.111439 -0.874,-1.679819 -3.16015,-2.948443 -5.33042,-2.957441 z m 10.43967,3.669543 c -1.09667,-0.04083 -2.59104,1.433936 -3.42098,3.616833 -0.23891,0.62839 -0.21302,0.666607 0.33642,0.497128 2.35128,-0.725331 4.59131,-2.859151 3.88916,-3.705201 -0.22136,-0.266719 -0.49753,-0.397328 -0.8046,-0.40876 z M 271.9,-16.396781 c -0.14387,-0.0018 -0.2971,0.01399 -0.42582,0.04754 -0.25744,0.06707 -0.111,0.126775 0.32556,0.131775 0.43656,0.0054 0.64732,-0.04946 0.46819,-0.121957 -0.0896,-0.03635 -0.22407,-0.05556 -0.36793,-0.05736 z m -3.28766,1.874819 c -0.30989,-0.06573 -1.17822,1.035402 -1.17822,1.546678 0,0.29959 0.12009,0.470421 0.26665,0.37982 0.35877,-0.221729 1.1283,-1.734587 0.96531,-1.897558 -0.0153,-0.01527 -0.0331,-0.02456 -0.0537,-0.02894 z m 8.33954,1.889292 c -1.22358,0.0062 -2.45221,0.274899 -4.16563,0.849043 -2.31197,0.77471 -2.17713,0.767328 -2.17713,0.115239 0,-1.154599 -2.24925,-0.13434 -4.10104,1.8603512 l -0.79375,0.855245 0.74775,-0.134358 0.74776,-0.134358 -0.88005,0.9332754 c -0.65278,0.6920603 -0.74343,0.8834543 -0.35088,0.7420743 0.29104,-0.1048203 0.8663,-0.2583813 1.27847,-0.3415823 l 0.74931,-0.151411 -0.17983,1.2019923 c -0.15979,1.065578 -0.11852,1.221539 0.36535,1.375109 0.40805,0.129511 0.74627,-0.04729 1.341,-0.701249 0.43754,-0.4811 0.79958,-0.953779 0.80357,-1.050579 0.004,-0.0968 0.72292,-0.7135503 1.59681,-1.3704607 3.03204,-2.2792292 5.8991,-2.2286802 8.60361,0.151929 3.38661,2.9810277 5.36717,8.51898366 5.08392,14.2146347 -0.20544,4.13113 -1.2734,6.6861551 -3.74602,8.9617271 -1.75754,1.61748 -3.07344,2.149975 -5.33094,2.156976 -2.61259,0.0081 -6.48963,-1.263115 -7.47552,-2.451015 -0.26488,-0.319148 -0.20355,-0.359492 0.37672,-0.248563 0.62787,0.12002 0.67491,0.07306 0.50023,-0.499195 -0.10607,-0.347479 -0.58682,-1.425523 -1.06867,-2.395202 -0.52182,-1.0501 -0.8185,-1.9824701 -0.7338,-2.3063201 0.0988,-0.37801 -0.11242,-0.798161 -0.69246,-1.378209 -0.45887,-0.458862 -0.79084,-0.877793 -0.73794,-0.930694 0.0529,-0.0529 0.70339,0.329097 1.44539,0.848527 1.36402,0.95486 3.50934,1.528493 3.50934,0.938443 0,-0.162589 -0.69192,-0.644988 -1.53737,-1.071769 -1.69211,-0.854189 -2.36145,-1.461013 -1.91513,-1.736844 0.40309,-0.249129 0.33986,-1.082403 -0.11059,-1.456243 -0.33446,-0.27758 -0.28875,-0.446273 0.33073,-1.222663 0.39536,-0.4955011 0.84864,-0.9012371 1.00717,-0.9012371 0.28822,-1.1e-5 0.90228,-1.10393396 0.90228,-1.62212394 0,-0.15104 -0.56555,0.22784598 -1.25678,0.84232494 -0.69122,0.614471 -1.91162,1.4272531 -2.71197,1.8060941 l -1.45521,0.688845 1.24282,0.08268 c 1.1768,0.07808 1.21867,0.106299 0.78651,0.538469 -0.28247,0.282459 -0.85695,0.454068 -1.5074,0.449067 -0.98933,-0.0069 -1.04593,-0.04992 -0.96583,-0.734838 0.0704,-0.60248 -0.0206,-0.732811 -0.52917,-0.75861 -0.33783,-0.01712 -0.0786,-0.123048 0.57619,-0.235128 0.65484,-0.112059 1.60734,-0.38627 2.11667,-0.6097821 l 0.92604,-0.406694 -1.68517,0.15348 c -1.68056,0.15268 -1.68387,0.151212 -1.36787,-0.439248 0.29838,-0.557512 0.33664,-0.56424 0.66042,-0.121441 0.32537,0.44496 0.38116,0.445537 1.03353,0.01809 0.37914,-0.24842 0.76341,-0.74753296 0.85421,-1.10949396 0.17198,-0.68524898 0.48901,-0.84756298 0.76946,-0.39377398 0.3634,0.58798898 0.61893,0.206992 0.47129,-0.702799 l -0.15709,-0.96738296 0.58652,0.58652796 c 0.78489,0.784889 1.97427,0.672809 2.09755,-0.19792096 0.11538,-0.814959 -0.41883,-2.074786 -0.97203,-2.292366 -0.29753,-0.117031 -0.64573,0.08109 -1.08107,0.615466 l -0.64183,0.788064 -0.41651,-0.833022 c -0.32285,-0.645981 -0.61462,-0.852075 -1.30069,-0.917774 -1.14977,-0.110162 -1.74038,0.439227 -2.41691,2.247408 -0.73426,1.96248096 -0.67106,2.20637894 0.24443,0.94257796 0.83339,-1.15078096 1.73783,-1.62009596 2.21072,-1.14721696 0.21148,0.211431 0.19337,0.381256 -0.0656,0.621667 -0.2403,0.22304196 -0.29917,0.22929396 -0.18087,0.0186 0.0965,-0.171849 0.0332,-0.400608 -0.14056,-0.507978 -0.45388,-0.280509 -1.70287,1.31956096 -2.11201,2.7052609 -0.35922,1.21666 -0.58416,1.328984 -2.40916,1.205095 -0.40019,-0.02717 -0.7276,0.06061 -0.7276,0.195337 0,0.3636301 2.1513,2.1383701 2.59209,2.1383701 0.24491,0 0.33281,0.181319 0.24701,0.509529 -0.0932,0.356241 -0.0237,0.467387 0.23151,0.369488 0.30194,-0.115882 0.29751,0.02119 -0.0264,0.796333 -0.46542,1.113901 -0.37454,5.0446621 0.13953,6.0301231 1.6332,3.130832 5.09809,5.884354 8.98705,7.141683 1.67304,0.540911 3.89346,0.625329 5.42396,0.20619 1.9981,-0.54722 6.52669,-3.208835 8.061,-4.737696 2.80736,-2.797401 4.24212,-6.6889561 4.24212,-11.5062751 0,-5.006319 -1.6041,-9.152265 -4.75991,-12.3031237 -1.98028,-1.9771592 -3.9299,-3.0271162 -6.70502,-3.6116652 -0.83412,-0.175699 -1.56649,-0.26675 -2.30064,-0.263033 z m -17.35811,3.2623342 c -0.0129,0.0065 -0.0239,0.02222 -0.0331,0.04806 -0.0708,0.198739 0.0292,0.839739 0.22221,1.4247174 0.19306,0.5849803 0.39343,0.9373373 0.44493,0.7828993 0.13382,-0.401447 -0.44053,-2.3538657 -0.63407,-2.2556757 z m -1.38596,1.7327087 c -0.22558,4.44e-4 0.13017,0.744181 0.81132,1.446941 0.46511,0.479877 0.88863,0.872297 0.94103,0.872297 0.18727,0 -0.86908,-1.63049 -1.32344,-2.042767 -0.21392,-0.194114 -0.35372,-0.276617 -0.42891,-0.276471 z m 4.7935,1.041795 c -0.23642,0.0034 -0.47461,0.05613 -0.70641,0.161748 -1.75551,0.799861 -2.71681,4.409524 -1.58699,5.95829196 0.63233,0.866841 1.0043,0.909262 0.84905,0.09715 -0.0898,-0.470001 0.0673,-0.72225496 0.66094,-1.06298496 0.699,-0.40123 0.76189,-0.403789 0.61547,-0.02222 -0.0897,0.233791 -0.2282,0.92078196 -0.30799,1.52652196 l -0.14522,1.10122394 0.53175,-0.92604094 c 0.56417,-0.98321 0.763,-3.54317296 0.29766,-3.83077496 -0.14059,-0.08689 -0.63246,0.352676 -1.09296,0.976685 -0.79703,1.080051 -0.82844,1.096169 -0.65887,0.340548 0.28221,-1.257591 1.113,-1.795018 2.46238,-1.592667 1.4022,0.21028 1.68712,-0.243634 0.94723,-1.510504 -0.46246,-0.791752 -1.15676,-1.227053 -1.86604,-1.216979 z m 2.8789,0.467156 c -0.30422,-0.002 -0.56276,0.114073 -0.56276,0.372586 0,0.425331 0.89522,1.286164 1.2237,1.176674 0.12736,-0.04245 0.50391,0.194887 0.83664,0.527616 0.66679,0.66679 0.9776,0.609828 1.19424,-0.218591 0.10749,-0.411041 -0.0226,-0.610394 -0.51986,-0.799436 -0.36448,-0.138549 -0.75812,-0.193122 -0.87488,-0.120922 -0.11677,0.07217 -0.27415,-0.105408 -0.34985,-0.394809 -0.0896,-0.342476 -0.5561,-0.540546 -0.94723,-0.543118 z m -8.18038,1.076936 c -0.33908,0.0036 -0.58446,0.112017 -0.58446,0.366387 0,0.20251 0.29766,0.443034 0.66146,0.534334 0.36381,0.09131 0.66146,0.282546 0.66146,0.425297 0,0.14275 0.29016,0.259416 0.64492,0.259416 0.47926,0 0.63494,-0.13403 0.60564,-0.522449 -0.043,-0.571265 -1.24305,-1.070933 -1.98902,-1.062985 z m 3.24941,5.67769094 c -0.14948,0.02119 -0.0326,0.238699 0.37724,0.64853896 0.30317,0.30317 0.87881,0.54977 1.27899,0.54777 0.67971,-0.003 0.65127,-0.04693 -0.4346,-0.667661 -0.65594,-0.37495896 -1.07214,-0.54983296 -1.22163,-0.52864796 z m 4.62453,4.90357606 c 0.13683,0 0.30448,0.386956 0.37258,0.859896 0.41386,2.87419 0.76809,4.6261601 1.09193,5.4012201 0.51295,1.227662 0.25543,1.105092 -0.40721,-0.193786 -0.30203,-0.59204 -0.61884,-1.6636001 -0.70384,-2.3812501 -0.085,-0.717661 -0.22684,-1.304327 -0.31574,-1.303795 -0.0889,5.47e-4 -0.54869,0.237188 -1.02164,0.525547 -0.47294,0.28834 -0.8599,0.462891 -0.8599,0.388091 0,-0.382019 1.6301,-3.295923 1.84382,-3.295923 z" />
      <path
         id="path851-4-8"
         style="fill:#2f2f2f;fill-opacity:1;stroke-width:0.264583"
         d="m 348.74665,-14.42827 c -0.39514,0 -2.09488,1.467189 -3.09903,2.675289 -0.53077,0.63858 -1.10084,1.208906 -1.26659,1.267107 -0.45081,0.158289 -0.68902,0.6133202 -0.69402,1.3223998 -0.004,0.59831 -0.038,0.584171 -0.59944,-0.24443 -1.25288,-1.8491208 -1.73133,-0.9647208 -0.61444,1.1358475 0.39839,0.7493 0.58404,1.43238 0.48835,1.798339 -0.1492,0.5705 -0.17989,0.560115 -0.92811,-0.309026 l -0.77412,-0.898652 0.15762,0.912607 c 0.0866,0.502089 0.30448,1.016137 0.48421,1.142047 0.19523,0.1368 0.0604,0.153292 -0.33487,0.04134 -0.3638,-0.103053 -1.12929,-0.586817 -1.70119,-1.075388 -1.11382,-0.95154 -1.34781,-1.041313 -1.60972,-0.617533 -0.26485,0.428541 0.38231,4.032917 0.80874,4.504119 0.21202,0.234278 0.38877,0.714261 0.39377,1.066599 0.005,0.352351 0.19747,0.87890599 0.4284,1.16995596 0.40583,0.511468 0.41425,0.504822 0.25115,-0.19843797 -0.19682,-0.84862999 0.21785,-0.97858499 0.6351,-0.198953 0.2665,0.49795897 0.3383,0.50570097 1.23197,0.132291 0.52205,-0.21811899 1.26245,-0.39907599 1.64486,-0.40307599 0.71719,-0.0068 3.20859,-1.647114 3.20859,-2.112534 0,-0.820978 -3.24188,0.259702 -4.56096,1.520322 -0.94763,0.90561899 -1.1974,0.604216 -0.59893,-0.722953 0.58606,-1.299652 1.14219,-1.831512 1.42937,-1.366842 0.23254,0.376261 2.48316,-1.226122 2.95175,-2.101681 0.24318,-0.454401 0.20176,-0.563465 -0.25993,-0.684197 -0.30193,-0.07896 -0.5488,-0.234937 -0.5488,-0.346747 0,-0.369591 1.24782,-1.028906 2.68511,-1.419034 1.32271,-0.3590505 1.35466,-0.3862625 0.48162,-0.4087625 -0.51399,-0.01322 -1.58575,0.14505 -2.38125,0.351401 -1.64103,0.4256795 -1.90551,0.3480085 -1.16737,-0.341582 0.5933,-0.554279 6.03895,-1.6231238 8.26203,-1.6221238 2.4453,0.0014 4.1239,1.1299058 4.56044,3.0654463 0.12392,0.549391 0.13113,2.115095 0.016,3.479374 -0.19534,2.315181 -0.26749,2.539862 -1.07642,3.37447196 -1.06832,1.10223 -2.71372,1.82800604 -5.74538,2.53369504 -3.17911,0.74 -3.34054,0.795647 -3.07682,1.059368 0.12635,0.126354 1.17985,0.463052 2.34146,0.748273 2.81358,0.690817 5.27878,0.701135 7.07399,0.02946 2.70998,-1.013931 4.45385,-3.74613004 4.6054,-6.910689 v -0.871781 c -0.0197,-0.445262 -0.0685,-0.895919 -0.15244,-1.34979 -1.0632,-5.7513883 -5.68577,-9.1711973 -10.92647,-8.0832273 -1.25792,0.261141 -1.57837,0.449614 -2.00918,1.179774 -0.28194,0.477859 -0.91514,1.151149 -1.40663,1.49655 l -0.89349,0.628386 0.89297,-1.029913 c 1.19813,-1.381609 2.0109,-3.31711 1.39268,-3.31711 z m -12.96975,11.6416663 0.7121,1.427303 c 0.3915,0.78516996 0.9497,1.55268296 1.24075,1.70532096 0.85862,0.450303 1.316,0.239959 1.4025,-0.644921 0.11604,-1.18630996 -1.14938,-2.48770296 -2.41897,-2.48770296 z m 7.2192,2.02158099 c -0.0338,0.0024 -0.0654,0.0074 -0.0946,0.01499 -0.57671,0.15079897 -0.92183,1.16805297 -0.48731,1.43660297 0.24339,0.150421 1.05606,-0.197244 1.79731,-0.768946 0.26307,-0.202901 -0.70878,-0.71935697 -1.21543,-0.68264597 z m -2.49442,1.20406297 c -0.25382,0.02087 -0.50633,0.200763 -0.91726,0.523999 -1.5323,1.20532004 -2.29459,4.63624104 -1.25987,5.67097104 0.44032,0.440312 0.47108,0.405098 0.63407,-0.734322 0.3687,-2.57751 1.59232,-3.604786 2.759,-2.315623 l 0.49765,0.550355 0.44493,-0.54932 c 0.60479,-0.74689 0.35629,-1.463588 -0.83302,-2.405539 -0.67084,-0.53130704 -0.99916,-0.76735204 -1.3255,-0.74052104 z m 3.44992,0.478523 c -0.25766,0 -0.62426,0.18737204 -0.81443,0.41651204 -0.29459,0.35496 -0.22071,0.533181 0.49713,1.204061 0.97027,0.906785 1.05144,1.14151 0.33022,0.952912 -0.76824,-0.2009 -1.58482,0.513369 -2.31563,2.025201 -0.43736,0.90479 -0.59446,1.091009 -0.47335,0.560689 0.0997,-0.43656 0.20208,-0.912813 0.22737,-1.058334 0.0254,-0.145528 0.13384,-0.405286 0.24133,-0.577225 0.22148,-0.35432 -0.88081,-1.252514 -1.15548,-0.941544 -0.40738,0.46123 -0.78622,2.044086 -0.51108,2.135786 0.16985,0.05664 0.2139,0.447476 0.11162,0.992703 -0.0928,0.494747 -0.0819,1.109017 0.0243,1.364777 0.16356,0.393959 0.24695,0.343807 0.54622,-0.328663 0.30507,-0.685451 0.35506,-0.714246 0.36535,-0.209807 0.0103,0.503222 0.1401,0.573881 0.93793,0.51108 0.81296,-0.06403 0.92604,0.0022 0.92604,0.540536 0,1.119399 1.51466,0.555897 1.90583,-0.709002 0.093,-0.30099 0.20086,-0.249248 0.44958,0.215493 0.26316,0.491717 0.40169,0.550124 0.7059,0.297656 0.20813,-0.17273 0.37827,-0.541755 0.37827,-0.820105 0,-0.42581 0.085,-0.460894 0.53485,-0.220141 0.71016,0.380068 0.97911,0.173167 1.34049,-1.033013 0.22681,-0.757301 0.22634,-1.149871 -0.002,-1.576649 -0.37696,-0.704337 -0.81783,-0.718064 -1.66501,-0.05168 l -0.65629,0.516765 -0.57775,-0.781349 -0.57722,-0.78083 h 0.91829 c 1.24693,0 1.46014,-0.477046 0.55966,-1.251604 -0.52356,-0.450339 -0.82122,-0.553386 -1.02113,-0.353467 -0.34407,0.344051 -0.79473,0.375711 -0.58808,0.04134 0.25202,-0.407768 -0.1487,-1.08210304 -0.64285,-1.08210304 z m -8.71988,1.87327104 c -0.22686,0.01182 -0.0552,0.185087 0.38137,0.38499 1.02571,0.469638 1.18254,0.464889 0.54467,-0.01757 -0.28247,-0.213659 -0.69919,-0.379219 -0.92604,-0.36742 z m 1.42678,1.866553 c -0.19457,4.8e-5 -0.5155,0.122915 -1.05368,0.347782 -0.88463,0.369631 -1.10337,0.666041 -0.75086,1.018543 0.0919,0.09191 0.3707,0.058 0.61908,-0.07493 0.24838,-0.132999 0.69684,-0.177618 0.99684,-0.09922 0.45319,0.11852 0.53881,0.02728 0.50591,-0.542084 -0.0259,-0.447339 -0.0671,-0.650153 -0.31729,-0.650089 z m 7.19233,0.377238 c 0.0926,0.01792 0.18724,0.09319 0.31316,0.219107 0.33578,0.33578 0.31291,0.474519 -0.18087,1.102259 l -0.56483,0.718302 v -0.712619 c 0,-0.496958 -0.10014,-0.654187 -0.33072,-0.519348 -0.18191,0.10636 -0.10045,-0.06906 0.18086,-0.389641 0.27944,-0.318452 0.4281,-0.447929 0.5824,-0.41806 z m -5.1568,2.81378 c -0.0244,-0.0026 -0.0382,0.0066 -0.0382,0.02894 0,0.08942 0.32633,0.464889 0.72503,0.834573 0.73035,0.67723 1.50337,0.869379 1.76888,0.439766 0.079,-0.127799 -0.23402,-0.307774 -0.69505,-0.399973 -0.46103,-0.0922 -1.05405,-0.36345 -1.31826,-0.602549 -0.19816,-0.179363 -0.36917,-0.292838 -0.44236,-0.300757 z m 9.11469,0.150379 c -0.13299,0.0094 -0.49188,0.231124 -1.0914,0.653708 -1.17243,0.8264 -1.27411,0.84731 -4.63021,0.951879 -1.8873,0.0588 -3.43132,0.202898 -3.43132,0.319879 0,0.1169687 0.4976,0.6384307 1.10588,1.1591017 v 5.16e-4 c 0.60827,0.520661 1.31032,0.946712 1.55959,0.946712 0.57751,0 0.87492,-0.750354 0.48421,-1.221114 -0.34241,-0.412591 -0.1635,-0.504671 1.4087,-0.723471 l 0.98651,-0.1369407 -0.72192,0.6351037 -0.72192,0.635619 0.86506,0.0083 c 1.05438,0.01019 2.69039,-0.981692 3.61166,-2.1895307 0.54385,-0.713012 0.74616,-1.05184 0.57516,-1.03973 z m 14.19655,2.4453297 c -0.40018,8.09e-4 -1.17949,0.126735 -1.73167,0.280085 -1.06304,0.29519 -1.42878,0.848509 -2.00815,3.03651 -0.15573,0.588129 -0.64035,1.411592 -1.07694,1.829861 -1.56085,1.4954 -4.56464,1.16674 -9.60406,-1.051097 -1.92514,-0.847262 -2.51048,-1.020906 -2.16835,-0.642856 0.25781,0.284851 0.39381,0.592696 0.30231,0.684194 -0.23812,0.238141 -1.60893,-0.376121 -2.32234,-1.040762 -0.51246,-0.477441 -0.57881,-0.491834 -0.42478,-0.09043 0.1004,0.261581 0.18242,0.704255 0.18242,0.983404 0,0.27914 0.12799,0.507463 0.28422,0.507463 0.15624,0 0.8675,0.638574 1.58078,1.419033 0.71328,0.780442 1.68663,1.610982 2.16318,1.845882 1.23674,0.609631 1.87149,0.575294 1.66036,-0.08992 -0.20022,-0.630831 -0.11281,-0.638297 1.56373,-0.129707 1.60704,0.487468 4.35489,0.503243 6.10919,0.03462 3.86757,-1.033119 6.21771,-3.444337 6.21771,-6.378937 0,-1.13215 -0.0407,-1.198344 -0.72761,-1.197343 z m -17.79219,1.108459 c -0.58791,0.0113 -0.94636,0.207611 -1.01751,0.582393 -0.0718,0.378031 0.0143,0.459499 0.34985,0.330729 0.24495,-0.09403 1.17979,-0.179551 2.07739,-0.189651 l 1.63194,-0.01809 -1.28157,-0.393775 c -0.70709,-0.217215 -1.30284,-0.320399 -1.7601,-0.31161 z m -2.42414,1.01079 c -0.38054,-0.01302 -0.99292,0.406329 -1.1064,0.840262 -0.16079,0.61491 0.45673,2.331001 0.94775,2.634463 0.60003,0.370818 0.79502,-0.131427 0.65422,-1.684136 -0.0784,-0.864658 -0.20341,-1.632788 -0.27802,-1.707388 -0.0542,-0.05418 -0.12974,-0.08019 -0.21755,-0.0832 z" />
      <path
         id="path851-4-4"
         style="fill:#2f2f2f;fill-opacity:1;stroke-width:0.264583"
         d="m 427.70223,-21.981209 c -0.94981,-0.0014 -1.80135,0.340498 -2.38384,1.042832 -0.35466,0.42763 -0.34373,0.506037 0.10697,0.768427 1.13436,0.660392 2.21899,1.790739 2.34353,2.442228 0.19826,1.037151 -0.24847,2.325653 -1.27073,3.664892 -0.50247,0.65827 -0.80057,1.196827 -0.66249,1.196827 0.13808,0 0.65184,0.684604 1.14154,1.521354 0.63136,1.078791 1.05243,1.5236221 1.44797,1.5296221 0.30679,0.0045 0.78444,0.212828 1.06092,0.463021 0.6611,0.59831 0.85782,0.573532 0.85782,-0.106968 0,-0.461661 0.0682,-0.504727 0.38499,-0.241848 0.50367,0.418005 0.85942,0.175395 1.05627,-0.7208861 0.11901,-0.541841 0.31778,-0.724504 0.78807,-0.724504 0.50905,0 0.5828,0.08516 0.3886,0.448035 -0.13196,0.24656 -0.35807,0.521833 -0.50281,0.611333 -0.14474,0.08945 -0.26303,0.3339471 -0.26303,0.5436371 0,0.274751 0.35111,0.388726 1.25677,0.407726 0.69122,0.01451 1.55443,0.121718 1.91823,0.238228 0.90139,0.28866 2.17325,0.3044 2.60294,0.03204 0.21845,-0.138462 -0.58214,-0.298178 -2.08825,-0.415997 -1.34344,-0.1051 -2.60442,-0.252862 -2.80189,-0.328662 -0.50116,-0.19231 -0.44737,-0.5964111 0.10439,-0.7870331 3.47418,-1.200208 4.98532,-2.095097 5.66942,-3.357417 0.80312,-1.48192 -1.4853,-0.839872 -3.92845,1.10226 -1.33961,1.064897 -1.3634,1.072607 -1.1746,0.37052 0.2659,-0.988732 0.0894,-1.588175 -0.52555,-1.783355 -0.44586,-0.14151 -0.49157,-0.304171 -0.31884,-1.136881 0.45076,-2.172941 0.002,-3.790391 -1.41852,-5.108733 -1.18458,-1.099699 -2.56825,-1.66886 -3.78943,-1.670698 z m 3.97236,7.817094 c 0.22721,-0.02823 0.21036,0.355848 -0.12299,1.000455 -0.2303,0.44536 -0.53359,1.259796 -0.67386,1.810227 -0.23721,0.93105 -0.24921,0.894022 -0.17311,-0.533818 0.0522,-0.979451 0.23887,-1.692013 0.51573,-1.968873 0.19732,-0.197321 0.35096,-0.295159 0.45423,-0.307991 z m 10.12445,0.511598 c -0.75838,0.03031 -1.5557,0.188669 -1.95492,0.457335 -0.37727,0.253892 -1.08174,0.72232 -1.5658,1.041281 l -0.88005,0.579808 1.43351,0.0987 v 5.16e-4 c 3.20215,0.22049 3.84005,0.18919 4.41782,-0.21549 0.64697,-0.45316 0.76241,-1.159936 0.27026,-1.652096 -0.24299,-0.242996 -0.96244,-0.34037 -1.72082,-0.310057 z m -16.34991,1.051097 c -0.71173,0 -0.74948,0.766575 -0.0982,2.000396 l 0.62735,1.1880401 0.0817,-1.2298981 c 0.0978,-1.4679 -0.055,-1.958538 -0.61082,-1.958538 z m -1.36477,2.539381 c -0.23335,-0.0045 -0.0223,0.5459701 0.62012,1.2164611 0.39102,0.408152 0.81193,0.742075 0.93534,0.742075 0.33338,0 -0.17904,-0.836713 -0.96015,-1.567347 -0.29099,-0.272187 -0.48924,-0.3891331 -0.59531,-0.3911891 z m 4.43642,0.9043381 c -0.31858,0.0069 -0.65452,0.145925 -1.03198,0.41031 -0.81918,0.573781 -1.64531,2.2929086 -1.81177,3.7708287 -0.11793,1.0470012 -0.0339,1.3794608 0.54363,2.1497396 l 0.68368,0.9115716 v -0.7570576 c 0,-0.4163324 0.0794,-0.6771111 0.17674,-0.5798106 0.0973,0.09733 0.3914,-0.016822 0.65319,-0.2537301 0.45377,-0.4106703 0.4697,-0.3643815 0.34674,0.9916689 l -0.12919,1.4221354 0.52452,-1.1270615 c 0.36322,-0.7802112 0.50449,-1.5737178 0.45888,-2.5796874 l -0.0656,-1.452626 h 1.00149 c 1.23578,0 1.27416,-0.3379814 0.20618,-1.812293 -0.54351,-0.7503 -1.02553,-1.105463 -1.55649,-1.093988 z m 3.33055,0.46147 c -0.2165,-0.01456 -0.4737,0.08034 -0.74208,0.297656 l -0.62528,0.506429 1.03973,0.9529125 c 1.20369,1.102532 2.78897,1.3615776 2.78897,0.4557871 0,-0.6844691 -0.5743,-1.0988489 -1.27072,-0.9167415 -0.45543,0.1191022 -0.58136,0.037523 -0.58136,-0.3756871 0,-0.568468 -0.24843,-0.896083 -0.60926,-0.920356 z m -3.97185,2.5021727 c 0.0384,-0.00761 0.0207,0.052398 -0.0512,0.179316 -0.1148,0.2028614 -0.37235,0.8576998 -0.57206,1.4552083 l -0.36277,1.086239 0.12867,-1.0402464 c 0.0709,-0.5720001 0.3284,-1.2268491 0.57206,-1.4552084 0.15245,-0.1428908 0.24684,-0.2177018 0.28526,-0.2253085 z m 3.55172,0.019119 c -0.30429,0.00501 -0.58361,0.1036611 -0.80254,0.3017916 -0.57134,0.5170488 -2.24366,4.3662679 -2.00194,4.607986 0.0909,0.090861 0.37667,-0.1152314 0.6351,-0.4578509 l 0.46974,-0.6227022 -0.12092,0.8252725 c -0.14935,1.01753985 0.12656,1.04615985 0.94051,0.097668 0.34341,-0.4000394 0.55227,-0.5844858 0.46457,-0.409276 -0.0873,0.1752097 -0.0832,0.6216861 0.01,0.99218745 0.22945,0.9141804 0.59775,0.8468731 1.01596,-0.18603645 0.68272,-1.6862187 0.74021,-2.3151042 0.21187,-2.3151042 -0.26471,0 -0.62153,-0.1399116 -0.79272,-0.3110918 -0.2386,-0.2386091 -0.44524,-0.1922912 -0.88521,0.1984375 -0.57149,0.5075397 -0.57231,0.5072539 -0.27079,-0.067696 0.3485,-0.6645486 1.13812,-0.9843558 1.86242,-0.7544752 0.77839,0.2470494 1.22098,1.5810124 0.88625,2.6716725 -0.1535,0.4999487 -0.1799,0.90898665 -0.0584,0.90898665 0.36319,0 1.05265,-0.80246805 1.05265,-1.22524835 0,-0.2167784 0.12578,-0.3157564 0.27956,-0.2206572 0.57231,0.3537082 1.51757,-0.1529874 1.93787,-1.038696 0.55028,-1.1596317 0.53962,-1.3729335 -0.10077,-2.0133151 -0.64786,-0.6478587 -2.38125,-0.7441618 -2.38125,-0.1322916 0,0.5263197 -0.1608,0.5006472 -0.78703,-0.1255739 -0.48117,-0.4811739 -1.05762,-0.7323323 -1.56476,-0.7239873 z m 6.4518,2.3275078 c -0.0402,-0.00148 -0.0921,0.00848 -0.15503,0.029456 -0.20509,0.06836 -0.37259,0.2930446 -0.37259,0.4991947 0,0.206158 -0.11636,0.4579858 -0.25838,0.5596546 -0.14202,0.1016714 0.0366,0.3035591 0.39688,0.4490693 0.36029,0.1454997 0.83385,0.2396728 1.05213,0.2087721 0.61566,-0.087111 0.46741,-0.8328263 -0.18397,-0.9255257 -0.40477,-0.0576 -0.53257,-0.2088647 -0.42116,-0.4991946 0.0809,-0.2109735 0.0627,-0.3169735 -0.0579,-0.3214264 z m -2.26498,2.1052975 c -0.11343,0.00272 -0.30111,0.1314158 -0.524,0.3999759 -0.84506,1.01821985 -2.15684,1.29679695 -6.13916,1.30379525 -1.56434,0.00266 -2.84427,0.064143 -2.84427,0.136943 0,0.07284 0.46206,0.6383814 1.02733,1.25677085 0.78817,0.8622506 1.21993,1.1244791 1.85208,1.1244791 0.90338,0 1.04811,-0.3727079 0.41548,-1.0717688 -0.3777,-0.41735115 -0.33194,-0.46600275 0.59531,-0.63045185 0.55247,-0.097981 1.24272,-0.2356247 1.53376,-0.3059245 0.34203,-0.08264 0.26865,0.020047 -0.20671,0.2909385 -0.8851,0.50438045 -0.71705,0.92345665 0.37001,0.92345665 0.8946,0 3.43047,-1.84625975 3.90673,-2.8442708 0.18266,-0.3827595 0.15929,-0.5874358 0.0134,-0.5839433 z m -9.16275,0.041341 c -0.0955,0.020807 0.12298,0.2625857 0.58136,0.74103975 0.80669,0.84201 0.91095,0.8845312 1.5596,0.6356218 0.29145,-0.1118421 0.0454,-0.3441171 -0.83871,-0.79271825 -0.79747,-0.404614 -1.20669,-0.6047501 -1.30225,-0.5839433 z m 11.0324,0.2201413 c -0.35278,0 -0.35278,0.028337 0,0.2563151 0.21828,0.1410705 0.57547,0.25631515 0.79375,0.25631515 0.35277,0 0.35277,-0.028334 0,-0.25631515 -0.21828,-0.14106 -0.57547,-0.2563151 -0.79375,-0.2563151 z m -1.13016,0.3829235 c -0.0692,-0.011962 -0.10295,0.12260265 -0.14211,0.37568715 -0.054,0.3491389 0.0521,0.9146805 0.23513,1.2567709 h -5.2e-4 c 0.18307,0.3420797 0.41231,0.62218345 0.50901,0.62218345 0.47538,0 0.45426,-0.42812485 -0.0698,-1.42213535 -0.29501,-0.5596069 -0.44281,-0.81712855 -0.53175,-0.83250615 z m -3.73414,3.0483916 c -0.63359,0 -0.70383,0.077303 -0.5426,0.5953125 l 0.18552,0.5953125 -0.58601,-0.5234808 c -0.55591,-0.4967314 -0.59971,-0.4996789 -0.84956,-0.053229 -0.21669,0.3872415 -0.47115,0.4395443 -1.43454,0.2950739 -1.16126,-0.1741408 -1.17455,-0.1671796 -1.59009,0.8273388 -0.29543,0.7071016 -0.36532,1.3587254 -0.23771,2.2096836 l 0.18087,1.2071614 0.56947,-0.6630088 c 0.31332,-0.3646487 0.83795,-1.0181457 1.16582,-1.4521074 0.41514,-0.5494099 0.27273,-0.074644 -0.4687,1.5642458 -0.58562,1.2944819 -1.00267,2.4157225 -0.92708,2.4913219 0.0756,0.075599 0.70329,-0.3414686 1.39475,-0.9265576 1.20774,-1.0219504 1.26041,-1.1248972 1.33791,-2.6230976 0.0444,-0.8577501 0.20577,-1.6786569 0.35863,-1.8241777 0.19315,-0.1838484 0.22035,0.00788 0.0894,0.6283854 -0.13195,0.6251892 -0.10067,0.8388323 0.10439,0.7121022 0.20257,-0.1252114 0.293,0.346411 0.293,1.5296224 0,1.5450396 -0.0487,1.697945 -0.49867,1.5802636 -1.13481,-0.2967593 -2.94091,1.2591706 -2.94091,2.5331794 0,1.453962 1.70791,2.156129 2.49855,1.027329 0.22653,-0.323392 0.41186,-0.449408 0.41186,-0.280088 0,0.16931 -0.11882,0.380757 -0.26354,0.470257 -0.14475,0.08945 -0.37342,0.369256 -0.5085,0.621665 -0.21447,0.400762 -0.13266,0.445918 0.64647,0.355018 0.84799,-0.099 0.89644,-0.162436 0.97203,-1.271756 0.10176,-1.493629 0.51562,-1.517828 0.94155,-0.05478 0.22194,0.762381 0.6145,1.340654 1.17616,1.732192 0.46367,0.323231 0.88982,0.541092 0.94722,0.483693 0.0574,-0.05735 -0.3826,-0.821738 -0.97771,-1.698088 -0.72091,-1.061569 -1.08273,-1.884979 -1.08572,-2.4675492 -0.003,-0.6619213 -0.0663,-0.7779014 -0.26046,-0.4774909 -0.21914,0.3392197 -0.25796,0.3295544 -0.26096,-0.066146 -0.006,-0.6384607 0.67445,-0.5799958 2.24534,0.1927543 1.47921,0.7276491 2.24896,0.8376448 2.24896,0.3219423 0,-0.5549477 -1.38538,-2.5830397 -3.00085,-4.3935279 -0.82351,-0.9229222 -1.49707,-1.7712081 -1.49707,-1.8851562 0,-0.1139613 0.49722,0.03329 1.10536,0.3271096 1.05533,0.5098812 3.11998,0.5717884 3.58428,0.107487 0.4575,-0.4574989 -2.8846,-1.7482131 -4.52686,-1.7482126 z m -1.16995,11.4246255 c -0.34406,0.03275 -1.1095,0.797963 -1.1095,1.183908 0,0.19572 0.11623,0.356049 0.25839,0.356049 0.34655,0 1.18027,-1.295029 0.96945,-1.505849 -0.0285,-0.02847 -0.0692,-0.03879 -0.11834,-0.03411 z m 1.25005,0.251148 c -0.71456,-0.0333 -1.3667,0.719175 -2.09548,2.314588 -0.53199,1.164609 -0.66628,2.277409 -0.36845,3.053559 0.0986,0.257027 0.29868,0.385985 0.5333,0.401011 h 0.0982 c 0.32198,-0.02192 0.68978,-0.243078 0.9524,-0.64389 0.23839,-0.363839 0.49448,-1.425843 0.56948,-2.360062 l 0.13642,-1.698604 1.35444,1.07642 c 3.07369,2.44308 7.24578,3.375626 9.29246,2.076876 0.7708,-0.48913 1.44101,-1.473171 1.62264,-2.38125 0.14239,-0.711962 0.0619,-0.839727 -0.78445,-1.243335 l -0.94361,-0.450102 -2.55075,1.233517 c -1.40289,0.678238 -2.90283,1.232998 -3.33365,1.232998 -1.05847,0 -2.09817,-0.575231 -3.09903,-1.71514 -0.50369,-0.573672 -0.95516,-0.87661 -1.3839,-0.896586 z" />
      <path
         id="path851-4-3"
         style="fill:#2f2f2f;fill-opacity:1;stroke-width:0.264583"
         d="m 518.75918,-13.847084 c -3.26025,-0.04253 -6.15752,0.313849 -7.59593,1.083654 -0.52924,0.283239 -0.52051,0.311689 0.29353,0.94878 0.7819,0.61192 1.88256,2.3527489 1.88256,2.9770779 0,0.150932 0.35722,1.0304229 0.79375,1.9544029 0.43659,0.923991 0.79375,1.89136 0.79375,2.149739 0,0.35224 0.0851,0.399294 0.33952,0.188103 0.18669,-0.154921 0.66291,-0.404675 1.05833,-0.555006 0.58084,-0.220829 0.71882,-0.198551 0.71882,0.11679 0,0.21468 -0.17857,0.390673 -0.39687,0.390673 -0.21829,0 -0.39688,0.229841 -0.39688,0.51108 0,0.2812309 -0.23212,0.5848959 -0.51572,0.6748939 -0.53169,0.1687512 -0.47655,0.8626792 0.0997,1.2572894 0.15613,0.1069287 0.34944,0.1964372 0.42942,0.1984375 0.30851,0.00859 0.78031,-0.6524572 0.78031,-1.0929567 0,-0.254 0.31853,-0.6168311 0.70797,-0.8066696 0.98984,-0.4825105 1.05217,-0.9510765 0.17365,-1.3084465 l -0.74933,-0.304377 1.19063,-0.34313 c 0.65484,-0.18846 1.69666,-0.473276 2.3151,-0.633037 1.27524,-0.32943 1.44836,-0.707921 0.43926,-0.96118 -0.80462,-0.201952 -2.53029,0.260148 -3.74655,1.00304 -0.70228,0.429178 -0.83037,0.448392 -0.69916,0.106452 0.0883,-0.230139 0.31771,-0.418062 0.51004,-0.418062 0.52062,0 1.18131,-0.758767 1.18131,-1.356506 0,-0.2885699 0.70011,-1.3378099 1.55546,-2.3316398 0.85537,-0.993831 1.6097,-1.969543 1.6764,-2.168343 0.0874,-0.260641 0.63645,-0.01952 1.96834,0.865063 3.39865,2.2572009 4.7153,2.7217559 5.9087,2.0830759 0.47241,-0.252828 1.24404,-2.0250099 0.99166,-2.2773799 -0.0677,-0.06768 -0.93853,-0.356264 -1.93527,-0.641305 -2.88928,-0.826254 -6.5123,-1.267987 -9.77254,-1.310513 z m 2.06292,0.827339 c 0.037,6e-4 0.0713,0.0041 0.10232,0.01033 0.22302,0.04517 -0.28435,0.419214 -1.12707,0.831475 -1.0332,0.505449 -1.41409,0.607348 -1.16994,0.31316 0.46165,-0.556238 1.64031,-1.16396 2.19469,-1.154969 z m -3.36774,2.739368 c 0.12792,0.0106 -0.10536,0.9931589 -0.68109,2.4861518 -0.48403,1.255131 -0.97854,2.143022 -1.19375,2.143022 -0.21381,0 -0.53769,-0.573117 -0.77462,-1.370975 -0.5424,-1.8264189 -0.51705,-1.9613989 0.21084,-1.115177 0.7651,0.88949 1.06837,0.72009 1.81386,-1.0128589 0.34115,-0.793083 0.54797,-1.1365259 0.62476,-1.1301629 z m -7.05747,1.7833529 c -0.0721,-0.0035 -0.13298,0.0138 -0.17259,0.05375 -0.10562,0.106508 0.37333,0.6715259 1.06452,1.2557359 1.39515,1.179139 1.60438,1.680554 0.59532,1.427303 -0.95348,-0.239311 -0.81386,0.01758 0.33073,0.608232 0.54572,0.28163 1.03346,0.39964 1.08365,0.261998 0.0926,-0.253878 -1.79655,-2.846218 -2.49907,-3.4292459 -0.13174,-0.109344 -0.28239,-0.171984 -0.40256,-0.177768 z m 1.09709,4.2054269 c -0.52213,0.006 -1.88986,0.7568542 -1.72495,1.0237103 0.0891,0.1441821 0.37468,0.262517 0.63458,0.262517 0.54038,0 1.52373,-0.9712087 1.25523,-1.2397183 -0.0331,-0.03316 -0.0902,-0.04736 -0.16486,-0.046509 z m 1.38906,0.1922387 c -0.72532,0.047852 -1.4307,0.6703245 -1.96008,1.8288264 -0.85828,1.87829031 -0.93859,3.22769442 -0.23977,4.0302471 l 0.57309,0.6583574 -0.16124,-0.9921875 c -0.13451,-0.82874109 -0.0517,-1.10119579 0.50075,-1.65364579 0.62418,-0.62416 1.21439,-0.86423771 1.21439,-0.4940274 0,0.091961 -0.25649,0.5820886 -0.56999,1.0893399 l -0.56997,0.92242479 0.60873,-0.32608048 c 0.56771,-0.30381831 0.59743,-0.28346661 0.44132,0.29972528 -0.0921,0.3439425 -0.16904,1.0250805 -0.17105,1.5136019 -0.004,0.9217898 0.0342,0.9101455 -1.2604,0.3808545 -0.65116,-0.2662291 -0.3054,0.3295094 0.5302,0.9136406 0.46839,0.3274298 1.07985,0.5953125 1.35911,0.5953125 0.48993,0 0.4912,-0.018695 0.032,-0.5260658 -0.45892,-0.5071004 -0.45537,-0.5783738 0.092,-2.0086637 0.31216,-0.8157342 0.50586,-1.58287499 0.43048,-1.70480559 -0.0754,-0.1219306 -0.0112,-0.2997068 0.14261,-0.3948086 0.1538,-0.09506 0.21008,-0.392057 0.12507,-0.6599079 -0.11541,-0.3636486 -0.002,-0.50879111 0.44958,-0.57309011 0.86164,-0.1227402 0.89628,-0.8910505 0.0884,-1.9502702 -0.51517,-0.6754257 -1.09104,-0.9859989 -1.65521,-0.9487773 z m 5.07982,1.5068841 c -0.12094,-0.00322 -0.24768,0.040087 -0.40256,0.1229889 -0.51166,0.2738199 -0.69178,1.0528273 -0.32764,1.4169681 0.27467,0.27466921 1.7389,0.079817 1.84536,-0.2454619 0.0498,-0.152101 -0.15557,-0.5397341 -0.45579,-0.8619649 -0.27282,-0.2928488 -0.45784,-0.4271698 -0.65937,-0.4325302 z m -1.46505,1.5632112 c -0.21318,0.00647 -0.43955,0.098232 -0.74827,0.25786561 -1.59486,0.8247406 -2.67383,3.36093059 -1.80091,4.23384919 0.22529,0.2253006 0.59721,0.3374972 0.82629,0.2495973 0.2291,-0.087911 0.41651,-0.037568 0.41651,0.1116224 0,0.1491906 0.0621,0.4318953 0.13748,0.6283854 0.21619,0.5639303 -2.04066,1.003599 -2.88304,0.5622396 -0.40658,-0.213061 -0.87426,-0.2633266 -1.22989,-0.1317757 -0.57335,0.21209 -0.57295,0.2132859 0.15812,1.0821035 0.40243,0.4782608 0.97917,0.9697799 1.28209,1.0924408 0.30292,0.122679 0.70951,0.171188 0.90331,0.107487 0.19378,-0.06364 0.48231,-0.115755 0.6413,-0.115755 0.15899,0 3.7e-4,-0.3167224 -0.35242,-0.7038343 -0.47445,-0.5206286 -0.5225,-0.6614636 -0.18553,-0.5405332 0.25056,0.089969 0.78634,0.059137 1.19063,-0.068215 0.40428,-0.1273493 1.06224,-0.3030723 1.46243,-0.3906732 0.87098,-0.1905794 0.97131,-0.6779948 0.13954,-0.6779948 h -0.58809 l 0.58396,-0.4087601 c 0.32094,-0.2248005 0.689,-0.79035 0.81804,-1.2567708 l 0.23461,-0.8480107 0.35708,0.79375 0.35708,0.79375 0.0894,-1.128612 c 0.0873,-1.0993331 0.10475,-1.1182588 0.66249,-0.7276041 0.7443,0.5212794 1.75144,0.5129 1.9544,-0.016021 0.25712,-0.6700731 -0.39595,-2.44360689 -0.96634,-2.62464539 -0.58653,-0.1861503 -1.59165,0.2658877 -1.59165,0.7157164 0,0.1657615 -0.26787,0.06014 -0.59531,-0.2346087 -0.59992,-0.5400939 -0.918,-0.76577031 -1.27331,-0.75499321 z m -0.51829,1.48001301 c 0.0997,0.00622 0.25352,0.1176179 0.46558,0.3296946 0.40791,0.40789229 0.41066,0.48438599 0.0289,0.86609769 -0.38172,0.3817197 -0.43151,0.3525943 -0.56277,-0.3307292 -0.11398,-0.59351859 -0.0979,-0.87542419 0.0682,-0.86506309 z m 4.48034,2.49080329 c -0.11504,-0.017767 -0.38713,0.1458119 -0.83666,0.5575882 -1.65685,1.517732 -2.06026,1.7818947 -3.43906,2.2530938 l -1.38959,0.4749059 0.79375,0.2821543 c 0.60722,0.2156301 0.80026,0.4516834 0.82116,1.0056226 0.0519,1.375389 1.17274,3.4639101 2.30683,4.2979291 0.59245,0.4357 1.18615,0.7922 1.31879,0.7922 0.45709,0 -0.10489,-1.459087 -1.15809,-3.0075691 -0.98239,-1.44443 -1.02311,-1.576338 -0.58806,-1.894457 0.44326,-0.324101 0.44363,-0.368178 0.0103,-0.8469786 -0.43873,-0.4847986 -0.40394,-0.5603874 0.86352,-1.8753375 1.04407,-1.0832438 1.55017,-2.0000595 1.29709,-2.0391517 z m -6.21204,4.6426118 c -0.20532,0.01224 -0.49983,0.208722 -0.76118,0.581877 -0.50705,0.723879 -0.5333,1.694683 -0.0537,1.9781741 0.47461,0.28059 0.79738,3.274848 0.33383,3.096969 -0.19222,-0.07375 -0.5682,0.413967 -0.92036,1.193207 -0.32753,0.724662 -1.0056,1.677561 -1.50688,2.117701 l -0.91159,0.799952 1.38959,0.392224 c 0.7643,0.2155 1.74678,0.446664 2.18331,0.513664 1.37761,0.211439 4.997,-0.02434 5.75469,-0.374655 0.95941,-0.44355 0.93739,-1.184936 -0.0455,-1.527556 -0.93771,-0.326879 -1.29772,-0.94788 -1.51722,-2.615861 -0.18116,-1.37649 -1.48979,-4.2380961 -2.17713,-4.7614661 -0.23508,-0.178991 -0.70876,-0.32883 -1.05317,-0.33383 -0.4948,-0.0066 -0.59706,-0.119716 -0.48781,-0.537435 0.095,-0.363225 -0.0215,-0.535207 -0.22688,-0.522965 z m 1.68156,5.2224201 c 0.026,-0.01113 0.04,0.0085 0.0393,0.06305 -0.005,0.388491 -1.00851,2.413439 -1.03042,2.079461 -0.006,-0.09324 0.22426,-0.688567 0.51213,-1.322916 0.21587,-0.475772 0.40121,-0.786199 0.47903,-0.81959 z" />
      <path
         id="path851-4-2"
         style="fill:#2f2f2f;fill-opacity:1;stroke-width:0.264583"
         d="m 578.7459,-13.667115 c -3.06028,0.0044 -6.56281,0.04835 -10.66292,0.12609 -11.51771,0.21839 -11.80423,0.23657 -13.16303,0.840259 -1.3113,0.582588 -1.71661,1.112488 -1.1286,1.475877 0.66371,0.410231 3.22252,0.608563 4.6705,0.362252 0.85323,-0.14514 5.4804,-0.368798 10.28258,-0.497126 15.9325,-0.425741 23.03569,0.424537 29.64265,3.549137 1.73408,0.82009 2.61358,1.415362 3.20289,2.1667919 4.00251,5.10349002 4.83039,11.351382 2.21072,16.6847701 -1.06378,2.165692 -3.64244,4.59163 -5.73608,5.396569 -2.19586,0.844251 -5.29064,0.981382 -7.93131,0.351401 -1.86762,-0.44554 -3.27512,-0.49516 -14.11282,-0.49816 -10.5723,-0.0031 -12.3076,-0.06162 -14.24771,-0.478526 -4.39465,-0.944348 -9.63875,-3.289627 -9.02065,-4.034376 0.23603,-0.284411 0.0507,-0.513025 -0.88935,-1.096574 -0.65317,-0.405493 -1.40819,-0.8746627 -1.67793,-1.0428317 -0.47501,-0.29614 -0.47424,-0.318209 0.0274,-0.698148 0.50094,-0.379402 0.4885,-0.410686 -0.38187,-0.939996 -0.73332,-0.44595 -0.81767,-0.578651 -0.45373,-0.718301 0.24569,-0.094271 0.39097,-0.262345 0.32247,-0.3731048 -0.1701,-0.2752381 -1.45986,-0.00724 -1.45986,0.3033421 0,0.1371997 -0.13801,0.1640447 -0.30644,0.059944 -0.20987,-0.1296902 -0.25932,-0.0095 -0.15711,0.381373 0.18579,0.71038 -0.10322,0.731346 -0.7183,0.05168 -0.46225,-0.5107589 -0.48061,-0.5033294 -1.14101,0.463021 -0.44307,0.648319 -0.68599,1.386528 -0.71469,2.1724784 -0.0239,0.654849 -0.20103,2.119955 -0.39376,3.255613 -0.48241,2.842432 -0.1787,3.106012 1.58078,1.373045 0.91194,-0.898271 1.32136,-1.161754 1.32136,-0.850596 0,0.247959 0.22265,0.590031 0.49506,0.760161 0.42082,0.262779 0.48051,0.571407 0.39791,2.052587 l -0.0972,1.743565 0.34933,-1.527556 c 0.39161,-1.71349 0.84945,-2.404311 1.12242,-1.692921 0.0928,0.241739 0.26575,0.379542 0.38396,0.30644 0.11824,-0.07307 0.78645,0.15689 1.48519,0.51108 l 1.27021,0.644406 -0.76999,0.19327 c -0.70006,0.1757 -0.72118,0.211347 -0.22945,0.393258 0.29758,0.11007 1.95784,0.358582 3.68919,0.552421 6.17699,0.691589 41.65989,0.308848 44.55541,-0.480591 3.81442,-1.039958 7.00352,-4.160833 8.60827,-8.4242914 0.98185,-2.6084394 1.21103,-3.9447783 1.20044,-7.0047401 -0.0166,-4.8473306 -1.29952,-8.2193365 -4.23179,-11.1243858 -2.21052,-2.1900117 -3.85485,-2.9704867 -7.429,-3.5253657 -5.38607,-0.83616 -10.58339,-1.176531 -19.76416,-1.163236 z m -26.34671,1.546675 c -0.2948,-0.02878 -0.78896,0.408686 -1.50794,1.318265 -0.80415,1.0173387 -1.06452,1.2151627 -1.06452,0.8092517 0,-0.8834087 -0.56685,-0.9745917 -1.23405,-0.1989527 -0.76692,0.8915607 -0.8101,2.252705 -0.0982,3.107304 0.42177,0.506251 0.52218,0.539872 0.52916,0.17725 0.005,-0.246079 0.12645,-0.520147 0.26977,-0.608748 0.37209,-0.22996 0.0485,1.373124 -0.51988,2.5771049 h 5.3e-4 c -0.25765,0.545698 -0.41558,0.992187 -0.35089,0.992187 0.0647,0 0.61489,-0.339497 1.2232,-0.754477 0.6083,-0.414978 1.82075,-1.010785 2.69388,-1.3244679 l 1.5875,-0.570507 -1.19063,0.144695 c -0.65484,0.07963 -1.66685,0.217757 -2.24896,0.306959 l -1.05833,0.162264 1.22836,-1.321885 c 1.51704,-1.6321813 2.07893,-2.6874483 2.07893,-3.905187 0,-0.584002 -0.10866,-0.888672 -0.33795,-0.911056 z m -8.76072,2.6174117 c -0.0728,0 0.11583,0.598088 0.41962,1.3291163 0.30383,0.731031 0.60511,1.276948 0.66922,1.212848 0.13665,-0.136682 -0.89361,-2.5419643 -1.08884,-2.5419643 z m 2.90472,1.1937263 c -0.10231,0.0037 -0.1878,0.09753 -0.25786,0.280086 -0.087,0.22665 -0.27824,0.338129 -0.42476,0.247531 -0.34769,-0.214173 -0.34888,1.9761299 -0.003,2.5119909 0.18886,0.292219 0.26918,0.08293 0.30488,-0.7937499 0.047,-1.15275 0.0517,-1.158825 0.15195,-0.202057 0.0661,0.6307719 0.31062,1.1331939 0.67593,1.3890619 h 10e-4 c 0.31472,0.220472 0.66511,0.400495 0.77824,0.400495 0.37299,0 0.20281,-1.4359229 -0.30181,-2.5471329 -0.39431,-0.868339 -0.6999,-1.294456 -0.92501,-1.286225 z m -1.4769,3.1026529 c -0.0952,-0.0015 -0.19571,0.02533 -0.29353,0.08578 -0.18899,0.116789 -0.073,0.388831 0.33073,0.775663 0.60613,0.580779 1.28365,0.477742 1.28365,-0.195337 0,-0.14759 -0.1755,-0.119144 -0.39687,0.0646 -0.32398,0.26887 -0.39688,0.253458 -0.39688,-0.08423 0,-0.381984 -0.24138,-0.64212 -0.5271,-0.646471 z m 2.01798,0.84801 c -0.0896,0.0053 -0.19643,0.06101 -0.32401,0.166915 -0.42283,0.350888 -0.51438,0.892652 -0.10853,0.641821 0.15435,-0.0954 0.26458,0.173755 0.26458,0.645954 h -5.3e-4 c 0,0.686941 0.10009,0.809255 0.66146,0.809255 0.80319,0 0.85024,-0.491091 0.12197,-1.272792 -0.29673,-0.318479 -0.46786,-0.579292 -0.38087,-0.579292 0.087,0 0.0809,-0.124912 -0.0134,-0.277502 -0.0586,-0.09483 -0.13102,-0.13969 -0.22066,-0.134359 z m -2.82877,0.417029 c -0.39449,0.0076 -0.78073,0.15019 -1.10588,0.439248 -0.85082,0.756361 -1.51328,2.4745021 -1.51929,3.9413626 -0.005,1.09474 0.11655,1.4576716 0.65577,1.9642217 0.71242,0.6692928 0.82436,0.4640528 0.3819,-0.6997012 -0.35888,-0.9438878 -0.12655,-1.85166258 0.56946,-2.22415098 0.80235,-0.4294213 0.84236,-0.2024803 0.17778,1.01079038 -0.68416,1.2490106 -0.41887,1.8329777 0.38809,0.8547285 l 0.54517,-0.6614583 -0.18396,0.758608 c -0.10139,0.4171606 -0.25681,1.1204866 -0.34521,1.5626954 -0.10869,0.5434012 -0.0681,0.7465351 0.12558,0.6268349 0.44293,-0.2737299 0.92366,-1.981843 0.77567,-2.7559027 -0.20698,-1.08273048 0.2131,-1.86215328 1.05524,-1.9590543 0.95676,-0.1100905 1.04484,-0.6813127 0.28112,-1.818492 -0.46299,-0.689364 -1.144,-1.052335 -1.80144,-1.03973 z m 5.45753,1.582332 c -0.62171,0 -1.4738,0.6055311 -1.4738,1.0474805 0,0.118999 -0.14883,0.2111216 -0.33073,0.2041207 -1.28069,-0.047559 -1.44577,0.097737 -2.39573,2.1073666 -0.52935,1.1198807 -0.90625,2.0925261 -0.83714,2.1616247 0.0691,0.06912 0.42887,-0.1593532 0.79941,-0.5074629 l 0.67387,-0.6325183 -0.53795,1.1828728 c -0.57928,1.2734793 -0.62092,1.2830704 -2.22517,0.5079788 -1.24442,-0.6011888 -1.23198,-0.5986118 -1.23198,-0.2377122 0,0.1526064 0.5057,0.5068517 1.12395,0.7875508 h 5.3e-4 c 0.61836,0.2806409 1.33173,0.5132466 1.58491,0.516247 0.56044,0.00708 2.26446,-2.2201902 2.49237,-3.2576823 0.17428,-0.7933716 0.65802,-1.14013188 1.15909,-0.8304398 0.19806,0.1223989 -0.0135,0.5153925 -0.61754,1.1477334 -2.01901,2.1135923 -1.97414,3.7058123 0.0563,1.9972947 0.71506,-0.6016916 0.83428,-0.6309836 0.9834,-0.2423636 0.13526,0.35247 0.2149,0.3702447 0.39325,0.088884 0.31319,-0.4940406 0.28612,-2.3672457 -0.048,-3.32589458 -0.24582,-0.7051701 -0.19745,-0.8919421 0.39688,-1.53324192 0.84463,-0.9113994 0.85235,-1.1818384 0.0341,-1.1818384 z m 1.34152,1.75183042 c -0.35459,-0.033912 -0.71123,0.4866243 -0.97718,1.47432978 -0.21059,0.7822379 -0.20148,1.1447118 0.0356,1.4304036 h -5e-4 c 0.31814,0.3833231 1.11982,0.2912269 1.73477,-0.1989561 0.35097,-0.2797598 0.0679,-1.86927588 -0.44236,-2.48408558 -0.11432,-0.1377632 -0.23214,-0.2103887 -0.35036,-0.2216917 z M 551.284,3.6698118 c -0.15148,0.012396 -0.44704,0.2043351 -0.94724,0.6004798 -0.5925,0.4692702 -1.71966,1.1144143 -2.50475,1.4335045 -1.11882,0.4547076 -1.35798,0.6496658 -1.10639,0.9012369 0.4068,0.4068181 1.27117,0.190807 2.60242,-0.6495732 1.35752,-0.8569616 2.08619,-1.5967921 2.08619,-2.1192515 0,-0.1167527 -0.0394,-0.1738366 -0.13023,-0.1663965 z m -2.71508,1.139981 c -0.0837,2.884e-4 -0.20224,0.020762 -0.35449,0.061495 -0.3502,0.093681 -1.57958,0.1721511 -2.73163,0.1741487 -2.30296,0.00397 -2.48523,0.1887617 -0.51107,0.518832 0.70546,0.117901 1.46171,0.1610017 1.68,0.095602 0.21828,-0.06541 0.72646,-0.1852506 1.12963,-0.2666497 0.40323,-0.081359 0.80876,-0.2704809 0.90125,-0.4201292 0.067,-0.108458 0.0258,-0.1637771 -0.11369,-0.1632988 z m -5.99188,0.503846 c -0.44773,0 -0.36873,0.1658012 0.50281,1.0583334 0.56838,0.5820886 1.20692,1.0583331 1.41904,1.0583331 0.21212,0 -0.34787,0.687615 -1.24436,1.527553 -0.89654,0.839952 -1.62989,1.6733837 -1.62989,1.8520837 0,0.482801 0.94372,0.393623 2.10426,-0.198438 1.06037,-0.540969 1.77935,-1.8759907 1.45936,-2.7099097 -0.089,-0.23205 0.0201,-0.470207 0.25734,-0.561208 0.22664,-0.08697 0.41238,-0.270139 0.41238,-0.4072091 0,-0.3322187 -2.60795,-1.6195384 -3.28094,-1.6195384 z m 4.44262,3.1496765 c 0.20346,-0.0077 1.0556,0.58901 2.04173,1.529623 l 1.57718,1.5043017 -0.64442,0.546219 c -0.3543,0.300501 -0.68548,0.69437 -0.73638,0.875401 -0.0916,0.325678 -1.07498,-1.096846 -1.93115,-2.794147 l -0.44285,-0.8779817 0.61132,0.318328 0.61184,0.318325 -0.64182,-0.697113 c -0.45604,-0.495816 -0.56751,-0.718326 -0.44545,-0.722956 z m 3.43492,6.2714527 c 0.12782,-0.01415 0.39759,0.0739 0.82735,0.261999 l 0.79375,0.347265 -0.7121,0.01188 c -0.39158,0.0066 -0.79036,-0.115067 -0.88624,-0.270266 -0.13634,-0.220594 -0.15055,-0.336733 -0.0228,-0.350883 z m 4.89945,1.179256 c 0.13496,-0.0014 0.3764,0.122327 0.70591,0.371554 v -5.18e-4 c 0.50316,0.380571 0.50173,0.388876 -0.0537,0.396875 -0.31186,0.0046 -0.63555,-0.170326 -0.71935,-0.388607 -0.0966,-0.25155 -0.0678,-0.377886 0.0672,-0.379304 z m -4.91908,0.412896 c -0.0374,0.0024 -0.0124,0.126701 0.0584,0.363802 0.81479,2.726928 2.87401,5.652854 4.15065,5.897313 0.33346,0.06384 0.62683,0.132647 0.65114,0.152445 0.0245,0.01982 0.23289,-0.03656 0.46353,-0.125058 0.71649,-0.274939 -0.45961,-1.92343 -2.44171,-3.422012 -0.97041,-0.7337 -2.04705,-1.745729 -2.39263,-2.248958 -0.28958,-0.421672 -0.44122,-0.620594 -0.48937,-0.617532 z" />
    </g>
  </g>
</svg>
